<svg width="280" height="60" viewBox="0 0 280 60" fill="none" xmlns="http://www.w3.org/2000/svg">
<mask id="mask0_1_33" style="mask-type:luminance" maskUnits="userSpaceOnUse" x="0" y="0" width="280" height="60">
<path d="M280 0H0V60H280V0Z" fill="white"/>
</mask>
<g mask="url(#mask0_1_33)">
<path d="M4.63225 57.5874C4.05806 57.5874 3.52258 57.4906 3.03871 57.3035C2.55484 57.1164 2.13548 56.8455 1.78064 56.5035C1.4258 56.1551 1.14838 55.7551 0.948385 55.2906C0.748385 54.8261 0.651611 54.3164 0.651611 53.7616C0.651611 53.2068 0.748385 52.6971 0.948385 52.2326C1.14838 51.768 1.4258 51.368 1.78709 51.0197C2.14838 50.6713 2.56774 50.4068 3.05161 50.2197C3.53548 50.0326 4.07096 49.9358 4.65161 49.9358C5.23225 49.9358 5.78709 50.0326 6.27742 50.2261C6.76774 50.4197 7.18709 50.71 7.52903 51.0906L6.86451 51.7551C6.56129 51.4584 6.2258 51.239 5.86451 51.0971C5.50322 50.9551 5.11613 50.8906 4.69677 50.8906C4.27742 50.8906 3.87096 50.9616 3.50322 51.1035C3.13548 51.2455 2.81935 51.4455 2.55484 51.7035C2.29032 51.9616 2.08387 52.2648 1.93548 52.6197C1.78709 52.9745 1.71613 53.3551 1.71613 53.768C1.71613 54.1809 1.78709 54.5551 1.93548 54.9035C2.08387 55.2584 2.29032 55.5616 2.55484 55.8197C2.81935 56.0777 3.13548 56.2777 3.50322 56.4261C3.86451 56.568 4.26451 56.639 4.69032 56.639C5.09032 56.639 5.47096 56.5745 5.83871 56.4519C6.20645 56.3293 6.54838 56.1164 6.85806 55.8261L7.46451 56.639C7.09677 56.9551 6.66451 57.1874 6.16774 57.3487C5.67096 57.51 5.16129 57.5874 4.63225 57.5874ZM6.43871 56.4971V53.7229H7.46451V56.639L6.43871 56.4971Z" fill="white"/>
<path d="M11.2065 57.5035V50.0261H12.2774V56.5745H16.329V57.5035H11.2129H11.2065Z" fill="white"/>
<path d="M22.5033 57.5874C21.9356 57.5874 21.4066 57.4906 20.9162 57.2971C20.4259 57.1035 20.0066 56.839 19.6517 56.4906C19.2969 56.1422 19.0195 55.7422 18.8195 55.2777C18.6195 54.8132 18.5227 54.31 18.5227 53.7616C18.5227 53.2132 18.6195 52.71 18.8195 52.2455C19.0195 51.781 19.2969 51.381 19.6517 51.0326C20.0066 50.6842 20.4259 50.4197 20.9098 50.2261C21.3937 50.0326 21.9227 49.9358 22.5033 49.9358C23.084 49.9358 23.6001 50.0326 24.0775 50.2197C24.5614 50.4068 24.9807 50.6777 25.3356 51.0197C25.6969 51.368 25.9743 51.768 26.1678 52.2326C26.3614 52.6971 26.4646 53.2068 26.4646 53.7616C26.4646 54.3164 26.3678 54.8261 26.1678 55.2906C25.9743 55.7551 25.6969 56.1551 25.3356 56.5035C24.9743 56.8519 24.5549 57.1164 24.0775 57.3035C23.5937 57.4906 23.0711 57.5874 22.5033 57.5874ZM22.5033 56.639C22.9162 56.639 23.2969 56.568 23.6517 56.4261C24.0066 56.2842 24.3098 56.0842 24.5678 55.8197C24.8259 55.5616 25.0324 55.2584 25.1743 54.9035C25.3227 54.5551 25.3937 54.1745 25.3937 53.7616C25.3937 53.3487 25.3227 52.968 25.1743 52.6197C25.0259 52.2713 24.8259 51.968 24.5678 51.7035C24.3098 51.4455 24.0001 51.2455 23.6517 51.0971C23.2969 50.9551 22.9162 50.8842 22.5033 50.8842C22.0904 50.8842 21.6969 50.9551 21.342 51.0971C20.9872 51.239 20.684 51.439 20.4195 51.7035C20.1549 51.9616 19.9485 52.2648 19.8066 52.6197C19.6582 52.968 19.5872 53.3487 19.5872 53.7616C19.5872 54.1745 19.6582 54.5551 19.8066 54.9035C19.9549 55.2519 20.1549 55.5551 20.4195 55.8197C20.684 56.0777 20.9937 56.2777 21.342 56.4261C21.6969 56.568 22.0775 56.639 22.5033 56.639Z" fill="white"/>
<path d="M29.8064 57.5035V50.0261H33.1612C34.0258 50.0261 34.6838 50.2003 35.1483 50.5422C35.6128 50.8906 35.8451 51.3616 35.8451 51.9552C35.8451 52.3616 35.7548 52.7035 35.5741 52.981C35.3935 53.2584 35.1483 53.4713 34.8451 53.6197C34.5419 53.7681 34.2064 53.8455 33.8516 53.8455L34.0451 53.5229C34.4709 53.5229 34.8516 53.6003 35.1806 53.7487C35.5096 53.8971 35.7677 54.1164 35.9612 54.4068C36.1548 54.6971 36.2516 55.0519 36.2516 55.4777C36.2516 56.1164 36.0128 56.6132 35.529 56.9681C35.0451 57.3229 34.3354 57.4971 33.387 57.4971H29.8193L29.8064 57.5035ZM30.8774 56.639H33.3354C33.929 56.639 34.3806 56.5423 34.6903 56.3423C35.0064 56.1423 35.1612 55.8326 35.1612 55.4003C35.1612 54.9681 35.0064 54.6519 34.6903 54.4519C34.3741 54.2519 33.9225 54.1552 33.3354 54.1552H30.7806V53.2906H33.0645C33.6064 53.2906 34.0258 53.1939 34.3225 52.9939C34.6193 52.7939 34.7741 52.4971 34.7741 52.0971C34.7741 51.6971 34.6258 51.4003 34.3225 51.2003C34.0258 51.0003 33.5999 50.9035 33.0645 50.9035H30.8774V56.6519V56.639Z" fill="white"/>
<path d="M38.471 57.5035L41.8581 50.0261H42.9162L46.3162 57.5035H45.1936L42.1678 50.6261H42.5936L39.5678 57.5035H38.4646H38.471ZM39.9162 55.6326L40.2065 54.781H44.413L44.7226 55.6326H39.9162Z" fill="white"/>
<path d="M49.1292 57.5035V50.0261H50.2001V56.5745H54.2517V57.5035H49.1357H49.1292Z" fill="white"/>
<path d="M63.4838 57.5035L60.9871 50.0261H62.0903L64.3871 56.9293H63.8322L66.2129 50.0261H67.1935L69.5225 56.9293H68.9871L71.3161 50.0261H72.329L69.8322 57.5035H68.7096L66.529 51.1035H66.8193L64.6322 57.5035H63.4903H63.4838Z" fill="white"/>
<path d="M73.9743 57.5035L77.3614 50.0261H78.4194L81.8194 57.5035H80.6968L77.671 50.6261H78.0968L75.071 57.5035H73.9678H73.9743ZM75.4194 55.6326L75.7097 54.781H79.9162L80.2259 55.6326H75.4194Z" fill="white"/>
<path d="M86.3999 57.5035L83.1096 50.0261H84.2645L87.2903 56.9293H86.6258L89.6709 50.0261H90.7419L87.4645 57.5035H86.4064H86.3999Z" fill="white"/>
<path d="M94.4646 56.5745H98.8259V57.5035H93.4001V50.0261H98.6775V50.9552H94.471V56.5745H94.4646ZM94.3678 53.2519H98.213V54.1616H94.3678V53.2519Z" fill="white"/>
<path d="M106.116 57.5034V56.7744L109.161 53.8389C109.432 53.5808 109.632 53.355 109.768 53.1615C109.897 52.9679 109.987 52.7873 110.032 52.6196C110.077 52.4518 110.103 52.2905 110.103 52.1357C110.103 51.7486 109.968 51.4454 109.697 51.226C109.426 51.0067 109.032 50.897 108.51 50.897C108.11 50.897 107.748 50.9615 107.432 51.097C107.11 51.226 106.832 51.4325 106.6 51.7099L105.871 51.0776C106.155 50.7163 106.535 50.4325 107.019 50.2389C107.503 50.0454 108.026 49.9421 108.606 49.9421C109.129 49.9421 109.581 50.026 109.961 50.1938C110.348 50.3615 110.645 50.6002 110.852 50.9163C111.065 51.2325 111.168 51.6002 111.168 52.026C111.168 52.2712 111.135 52.5099 111.071 52.7421C111.006 52.9744 110.884 53.226 110.71 53.4905C110.529 53.755 110.277 54.0518 109.942 54.3744L107.226 56.9937L106.968 56.5744H111.484V57.5034H106.11H106.116Z" fill="white"/>
<path d="M117.123 57.5874C116.535 57.5874 116.019 57.439 115.555 57.1358C115.097 56.839 114.735 56.4003 114.465 55.8326C114.2 55.2648 114.065 54.5745 114.065 53.7616C114.065 52.9487 114.2 52.2584 114.465 51.6906C114.729 51.1229 115.097 50.6842 115.555 50.3874C116.013 50.0906 116.535 49.9358 117.123 49.9358C117.71 49.9358 118.219 50.0842 118.684 50.3874C119.148 50.6842 119.51 51.1229 119.774 51.6906C120.039 52.2584 120.168 52.9487 120.168 53.7616C120.168 54.5745 120.039 55.2648 119.774 55.8326C119.51 56.4003 119.148 56.839 118.684 57.1358C118.219 57.4326 117.703 57.5874 117.123 57.5874ZM117.123 56.639C117.516 56.639 117.858 56.5293 118.155 56.3164C118.452 56.1035 118.684 55.781 118.852 55.3551C119.019 54.9293 119.103 54.4003 119.103 53.7616C119.103 53.1229 119.019 52.6003 118.852 52.168C118.684 51.7422 118.452 51.4197 118.155 51.2068C117.858 50.9939 117.516 50.8842 117.123 50.8842C116.729 50.8842 116.387 50.9939 116.084 51.2068C115.787 51.4197 115.548 51.7422 115.387 52.168C115.219 52.5939 115.135 53.1229 115.135 53.7616C115.135 54.4003 115.219 54.9229 115.387 55.3551C115.555 55.781 115.787 56.1035 116.084 56.3164C116.381 56.5293 116.729 56.639 117.123 56.639Z" fill="white"/>
<path d="M122.781 57.5034V56.7744L125.826 53.8389C126.097 53.5808 126.297 53.355 126.432 53.1615C126.561 52.9679 126.652 52.7873 126.697 52.6196C126.742 52.4518 126.768 52.2905 126.768 52.1357C126.768 51.7486 126.632 51.4454 126.361 51.226C126.09 51.0067 125.697 50.897 125.174 50.897C124.774 50.897 124.413 50.9615 124.097 51.097C123.774 51.226 123.497 51.4325 123.264 51.7099L122.535 51.0776C122.819 50.7163 123.2 50.4325 123.684 50.2389C124.168 50.0454 124.69 49.9421 125.271 49.9421C125.794 49.9421 126.245 50.026 126.626 50.1938C127.013 50.3615 127.31 50.6002 127.516 50.9163C127.729 51.2325 127.832 51.6002 127.832 52.026C127.832 52.2712 127.8 52.5099 127.735 52.7421C127.671 52.9744 127.548 53.226 127.374 53.4905C127.194 53.755 126.942 54.0518 126.606 54.3744L123.89 56.9937L123.632 56.5744H128.148V57.5034H122.774H122.781Z" fill="white"/>
<path d="M130.432 55.6648V54.9164L134.258 50.0261H135.413L131.619 54.9164L131.077 54.7487H137.052V55.6648H130.439H130.432ZM134.587 57.5035V55.6648L134.619 54.7487V53.1229H135.626V57.5035H134.587Z" fill="white"/>
<path d="M122.774 23.8843L122.658 24.0714L113.839 38.2778L109.903 44.6327H92.2646L105.026 24.0714L105.142 23.8843H122.774Z" fill="#B20D30"/>
<mask id="mask1_1_33" style="mask-type:luminance" maskUnits="userSpaceOnUse" x="92" y="23" width="31" height="22">
<path d="M122.774 23.8843L122.658 24.0714L113.839 38.2778L109.903 44.6327H92.2646L105.026 24.0714L105.142 23.8843H122.774Z" fill="white"/>
</mask>
<g mask="url(#mask1_1_33)">
<path d="M115.107 44.1476L100.635 20.9502L98.7683 22.1147L113.241 45.3121L115.107 44.1476Z" fill="#F1512D"/>
<path d="M111.373 46.4757L96.9007 23.2783L95.0342 24.4428L109.507 47.6402L111.373 46.4757Z" fill="#F1512D"/>
<path d="M107.64 48.8038L93.1668 25.6064L91.3003 26.771L105.773 49.9684L107.64 48.8038Z" fill="#F1512D"/>
<path d="M103.918 51.1329L89.4451 27.9355L87.5786 29.1001L102.051 52.2974L103.918 51.1329Z" fill="#F1512D"/>
</g>
<path d="M135.619 44.652H117.987L114.032 38.2778L105.219 24.0714L105.103 23.8843H122.735L122.852 24.0714L135.619 44.652Z" fill="#990033"/>
<path d="M137.064 0.94859L127.123 16.9679C125.735 19.2067 123.542 20.7679 121.052 21.3873C120.271 21.5808 119.464 21.6841 118.645 21.6841H108.561C107.929 21.6841 107.303 21.6131 106.69 21.4841L113.903 9.86472L116.993 4.88407C118.516 2.43246 121.193 0.942139 124.077 0.942139H137.064V0.94859Z" fill="#FA931D"/>
<mask id="mask2_1_33" style="mask-type:luminance" maskUnits="userSpaceOnUse" x="105" y="23" width="31" height="22">
<path d="M135.619 44.652H117.987L114.032 38.2778L105.219 24.0714L105.103 23.8843H122.735L122.852 24.0714L135.619 44.652Z" fill="white"/>
</mask>
<g mask="url(#mask2_1_33)">
<path d="M117.987 40.1487L120.458 35.71L123.303 40.1487H117.987Z" fill="#F1512D"/>
<path d="M123.303 40.1487L125.664 35.71L128.503 40.1487H123.303Z" fill="#B20D30"/>
<path d="M115.181 40.123L117.987 44.6521L130.019 44.665L132.839 40.123H115.181Z" fill="#B20D30"/>
</g>
<mask id="mask3_1_33" style="mask-type:luminance" maskUnits="userSpaceOnUse" x="106" y="0" width="32" height="22">
<path d="M137.064 0.94859L127.123 16.9679C125.735 19.2067 123.542 20.7679 121.052 21.3873C120.271 21.5808 119.464 21.6841 118.645 21.6841H108.561C107.929 21.6841 107.303 21.6131 106.69 21.4841L113.903 9.86472L116.993 4.88407C118.516 2.43246 121.193 0.942139 124.077 0.942139H137.064V0.94859Z" fill="white"/>
</mask>
<g mask="url(#mask3_1_33)">
<path d="M133.355 11.4068C133.355 19.239 127.297 25.6584 119.613 26.2326C119.271 26.2584 118.929 26.2713 118.581 26.2713H118.49C110.277 26.2713 103.626 19.6132 103.626 11.4068C103.626 3.2003 110.284 -3.45776 118.49 -3.45776C126.697 -3.45776 133.355 3.2003 133.355 11.4068Z" fill="#F2632B"/>
<path d="M118.484 28.6777C108.961 28.6777 101.213 20.9293 101.213 11.4067C101.213 1.88413 108.968 -5.86426 118.484 -5.86426C128 -5.86426 135.755 1.88413 135.755 11.4067C135.755 20.3938 128.742 27.9615 119.787 28.6261C119.393 28.6519 118.987 28.6712 118.587 28.6712H118.484V28.6777ZM118.484 -5.58684C109.11 -5.58684 101.484 2.03897 101.484 11.4132C101.484 20.7874 109.11 28.4132 118.484 28.4132H118.587C118.981 28.4132 119.381 28.3938 119.768 28.368C128.581 27.7099 135.484 20.2648 135.484 11.4196C135.484 2.04542 127.858 -5.58039 118.484 -5.58039V-5.58684Z" fill="#F2632B"/>
<path d="M128.768 11.4071C128.768 16.82 124.581 21.2587 119.264 21.6587C119.026 21.678 118.787 21.6845 118.548 21.6845H118.49C112.813 21.6845 108.213 17.0845 108.213 11.4071C108.213 5.72964 112.813 1.12964 118.49 1.12964C124.168 1.12964 128.768 5.72964 128.768 11.4071Z" fill="url(#paint0_linear_1_33)"/>
<path d="M126.606 13.6326C126.606 13.6326 126.561 13.6584 126.535 13.6713C126.348 13.4003 126.155 13.1229 125.961 12.8326C125.91 12.9294 125.968 13.1165 125.91 13.2455C125.71 12.9681 125.432 12.639 125.232 12.3616C125.226 12.4842 125.219 12.5681 125.213 12.6455C125.194 12.6584 125.258 12.9035 125.239 12.9165C125.071 12.71 124.826 12.2777 124.652 12.0519C124.671 12.2003 124.684 12.3358 124.703 12.4713C124.684 12.4906 124.742 12.7035 124.716 12.7165C124.426 12.4584 124.064 12.0003 123.774 11.7294C123.735 11.9229 123.606 11.8906 123.477 11.8132C123.168 11.6132 122.864 11.4003 122.542 11.181C122.529 11.2197 122.516 11.2584 122.51 11.2971C122.452 11.4842 122.355 11.51 122.2 11.3874C121.942 11.1745 121.69 10.9616 121.432 10.7487C121.4 10.7165 121.355 10.6906 121.297 10.6584C121.329 10.8842 121.361 11.0777 121.4 11.2777C121.381 11.2971 121.503 11.4519 121.477 11.4713C121.09 11.2971 120.561 10.981 120.181 10.8068C120.168 10.8326 120.161 10.8648 120.148 10.8842C120.181 10.9423 120.213 10.9939 120.284 11.11C119.994 11.039 119.761 10.9745 119.529 10.9165C121 11.7552 121.942 13.0197 122.555 14.5487C122.535 14.5681 122.677 14.8584 122.658 14.8842C122.535 14.7552 122.239 14.3616 122.09 14.2068C122.194 14.5616 122.284 14.91 122.335 15.2584C122.413 15.7358 122.419 16.2197 122.258 16.7294C121.91 16.439 121.961 16.0326 121.794 15.71C121.735 15.7552 121.684 15.7939 121.6 15.8584C121.452 15.3616 121.31 14.8777 121.168 14.4068C121.155 14.4068 121.142 14.4068 121.129 14.4068C121.11 14.5681 121.097 14.7358 121.084 14.9035C121.064 14.9035 121.058 15.2003 121.032 14.9035C120.935 14.5358 120.839 14.181 120.729 13.7939C120.697 13.6648 120.658 13.5358 120.626 13.4003C120.594 13.5939 120.574 13.7294 120.555 13.8777C120.555 13.8906 120.555 13.9035 120.555 13.9165C120.535 13.9165 120.51 14.1423 120.49 14.1487C120.49 14.1423 120.49 13.9165 120.49 13.91C120.368 13.5035 120.245 13.0971 120.116 12.6713C119.884 12.7294 119.806 12.5616 119.723 12.3939C119.568 12.0713 119.394 11.7681 119.187 11.4713C119.181 11.7423 119.181 12.6519 119.187 13.8713C119.194 14.7358 119.213 15.7552 119.226 16.8068C119.226 17.1681 119.232 17.5294 119.239 17.8906C119.239 18.1616 119.264 20.3487 119.284 21.6648C119.045 21.6842 118.806 21.6906 118.568 21.6906C118.568 20.4842 118.568 17.8197 118.561 17.4971C118.561 17.4261 118.561 17.3552 118.561 17.2842C118.561 16.6003 118.561 15.9294 118.555 15.2842C118.555 13.7939 118.555 12.4777 118.581 11.7229C118.581 11.4648 118.594 11.2777 118.606 11.1616C118.555 11.1874 118.497 11.2197 118.445 11.2519C118.161 11.4068 117.903 11.5423 117.632 11.6971C117.652 11.6068 117.671 11.5423 117.69 11.4584C117.484 11.6197 117.284 11.7745 117.071 11.9423C116.929 12.0519 116.781 12.1681 116.626 12.2906C116.587 12.0132 116.561 11.8132 116.529 11.5616C116.316 11.8842 116.129 12.1874 115.942 12.4777C115.761 12.7616 115.69 12.7616 115.503 12.4455C115.316 12.6842 115.148 12.9165 114.968 13.1423C114.897 13.2326 114.832 13.3229 114.742 13.3745C114.69 13.4003 114.619 13.4068 114.535 13.4068C114.51 13.4068 114.477 13.4068 114.445 13.4132C114.4 13.4842 114.361 13.5616 114.316 13.639C114.187 13.8584 114.045 14.11 113.89 14.3616C113.864 14.3487 113.806 14.7681 113.813 14.3294C113.794 14.2003 113.774 14.0648 113.742 13.8842C113.645 14.1552 113.555 14.3874 113.471 14.6197C113.445 14.6197 113.439 14.8519 113.413 14.8519C113.361 14.6068 113.284 14.1294 113.219 13.8261C113.155 14.2713 113.097 14.6777 113.032 15.11C113.032 15.1294 113.032 15.1552 113.026 15.181C113.019 15.239 113.013 15.2906 113 15.3487C112.942 15.2842 112.897 15.2326 112.845 15.181C112.806 15.1358 112.768 15.0971 112.729 15.0455C112.716 15.0906 112.71 15.1294 112.697 15.1745C112.6 15.5939 112.503 16.0068 112.4 16.4261C112.374 16.4261 112.361 16.6197 112.335 16.6197C112.29 16.4971 112.2 16.1745 112.181 16.0455C112.148 15.8068 112.148 15.5681 112.135 15.3294C112.135 15.2842 112.135 15.2326 112.142 15.1874C112.148 15.0971 112.142 15.0068 112.026 14.9487C111.994 14.9294 112 14.7939 112.026 14.7294C112.071 14.5939 112.123 14.4648 112.168 14.3294C112.168 14.3229 112.168 14.3165 112.168 14.31C112.258 14.0584 112.348 13.8132 112.426 13.581C112.31 13.6777 112.129 13.8584 111.974 13.981C111.961 13.981 111.981 13.9165 111.974 13.9035C111.987 13.8713 112 13.8326 112.026 13.8003C112.277 13.5487 112.529 13.2842 112.781 13.0261L112.955 12.8455C113.29 12.5035 113.632 12.1681 114 11.8648C114.742 11.2584 115.613 10.9294 116.535 10.7616C116.774 10.7165 117.026 10.6777 117.277 10.6584C117.374 10.6455 117.471 10.639 117.574 10.5874C117.381 10.5552 117.194 10.5358 116.942 10.4971C117.077 10.3552 117.187 10.2455 117.348 10.0777C116.987 10.1616 116.664 10.239 116.335 10.31C116.245 10.3358 116.161 10.3552 116.071 10.3745C116.084 10.2842 116.09 10.2197 116.097 10.1294C115.587 10.2455 115.09 10.3552 114.516 10.4906C114.645 10.3035 114.729 10.181 114.819 10.0648L113.619 10.6003C113.619 10.6003 113.406 10.781 113.394 10.7616C113.561 10.5294 113.903 10.0777 114.11 9.80677L112.529 10.581C112.529 10.581 112.658 10.4132 112.639 10.4003C112.703 10.31 112.761 10.2197 112.845 10.0906C112.677 10.2068 112.535 10.2906 112.387 10.3874C112.439 9.80677 113.213 9.08419 114.4 8.92936C114.355 8.86484 114.142 8.78097 114.103 8.7229C114.116 8.6971 114.31 8.6971 114.316 8.67129C114.748 8.65839 115.181 8.64548 115.6 8.68419C116.426 8.74226 117.206 8.93581 117.897 9.43258C118.155 9.61323 118.4 9.84548 118.626 10.1165C118.464 9.83258 118.297 9.56161 118.129 9.26484C118.174 9.26484 118.206 9.26484 118.29 9.27774C118.148 9.12935 118.026 9.01323 117.877 8.85194C117.974 8.86484 118.032 8.87774 118.142 8.89065C117.948 8.70355 117.787 8.55516 117.606 8.37452L117.587 8.35516H117.6C117.697 8.35516 117.755 8.34871 117.877 8.33581C117.735 8.21968 117.613 8.11645 117.503 8.01968C117.464 7.98742 117.426 7.95516 117.387 7.9229C117.413 7.90355 117.432 7.89065 117.458 7.87129C117.671 7.76161 118.006 7.82613 118.355 8.02613C118.548 8.14226 118.69 8.2971 118.806 8.48419C118.877 8.60032 118.935 8.72936 118.994 8.87129C119.032 8.78097 119.064 8.53581 119.09 8.49065C119.103 8.49065 119.116 8.68419 119.135 8.68419C119.142 8.77452 119.155 8.86484 119.161 8.95516C119.187 9.24548 119.213 9.54226 119.239 9.85194C119.994 8.22613 121.464 7.76806 123.09 7.41968C123.039 7.56161 123.019 7.63258 122.994 7.71C123.91 7.62613 124.729 7.78097 125.303 8.56807C125.303 8.58742 125.29 8.60677 125.284 8.63258C125.148 8.58742 125.013 8.55516 124.852 8.51C124.923 8.58742 124.981 8.65194 125.045 8.71645C125.045 8.74226 125.2 8.82613 125.187 8.85194C124.697 8.74871 124.039 8.58742 123.548 8.48419C123.548 8.4971 123.535 8.51 123.529 8.5229C123.755 8.71 123.974 8.8971 124.2 9.08419C124.187 9.11645 124.413 9.23903 124.4 9.27129C123.981 9.18097 123.316 9.00677 122.852 8.91C122.987 9.02613 123.097 9.11645 123.264 9.25194C122.684 9.26484 122.168 9.28419 121.632 9.29065C121.664 9.36161 121.684 9.42613 121.723 9.51645C121.284 9.51645 120.877 9.52936 120.419 9.53581C120.593 9.65194 120.729 9.73581 120.897 9.84548C120.671 9.92936 120.503 9.99387 120.335 10.0519C120.335 10.0648 120.342 10.0842 120.348 10.0971C120.606 10.0326 120.858 9.96807 121.116 9.91C122.542 9.62613 123.864 9.91645 125.09 10.6648C125.194 10.7294 125.316 10.781 125.406 10.8584C125.561 10.981 125.761 11.0648 125.787 11.3358C125.806 11.5035 126.006 11.6455 126.103 11.8132C126.187 11.9487 126.361 12.0777 126.213 12.2842C126.187 12.31 126.277 12.4132 126.303 12.4842C126.406 12.7487 126.516 13.0132 126.6 13.2842C126.626 13.381 126.6 13.4971 126.594 13.6003L126.606 13.6326Z" fill="#F1512D"/>
<path d="M119.374 5.56172C119.374 5.56172 120.613 5.71011 120.845 6.58753C120.845 6.58753 121.277 5.42624 122.658 5.76817C122.658 5.76817 121.671 4.81979 120.839 5.82624C120.839 5.82624 120.194 4.92301 119.374 5.56172Z" fill="#F1512D"/>
<path d="M119 3.67778C119 3.67778 119.839 3.77456 120 4.37456C120 4.37456 120.297 3.58746 121.232 3.81972C121.232 3.81972 120.561 3.17456 120 3.85843C120 3.85843 119.561 3.24553 119.006 3.67778H119Z" fill="#F1512D"/>
</g>
<path d="M121.052 21.3873C120.271 21.5808 119.464 21.6841 118.645 21.6841H108.561C107.929 21.6841 107.303 21.6131 106.69 21.4841C104.348 20.9808 102.284 19.5486 100.993 17.4712L90.7354 0.942139H104.542C106.916 0.942139 109.129 2.16794 110.381 4.1873L113.903 9.86472L121.058 21.3873H121.052Z" fill="#990033"/>
<path d="M72.3678 0.94873H57.3872V21.6907H72.3678V0.94873Z" fill="#B20D30"/>
<path d="M87.3419 0.94873C87.3419 9.2197 80.6258 15.9294 72.3613 15.9294V0.94873H87.3419Z" fill="#B20D30"/>
<path d="M72.3678 23.8843H57.3872V44.6262H72.3678V23.8843Z" fill="#990033"/>
<path d="M42.4065 15.9292C42.4065 7.65822 49.1227 0.948547 57.3872 0.948547V15.9292H42.4065Z" fill="#B20D30"/>
<mask id="mask4_1_33" style="mask-type:luminance" maskUnits="userSpaceOnUse" x="72" y="0" width="16" height="16">
<path d="M87.3419 0.94873C87.3419 9.2197 80.6258 15.9294 72.3613 15.9294V0.94873H87.3419Z" fill="white"/>
</mask>
<g mask="url(#mask4_1_33)">
<path d="M83.4322 3.2004L82.2129 2.80686C81.9484 2.71653 81.7548 2.51653 81.6709 2.26492C81.6387 2.16815 81.6258 2.07137 81.6322 1.96815C81.6322 1.95524 81.6322 1.93589 81.6322 1.92298C81.6387 1.76169 81.6516 1.60686 81.6516 1.43911V1.36169C81.6516 1.21331 81.6451 1.06492 81.6258 0.916536C81.6064 0.535891 81.8451 0.206861 82.2064 0.0842791L83.4258 -0.309269C83.8645 -0.451204 84.1032 -0.922172 83.9613 -1.35443L83.3935 -3.10282C83.2516 -3.54798 82.7871 -3.78024 82.3419 -3.63831L81.1161 -3.24476C80.7677 -3.12863 80.3742 -3.26411 80.1677 -3.58024C79.9742 -3.87701 79.7677 -4.16089 79.5484 -4.43185C79.3097 -4.72218 79.3032 -5.14153 79.5226 -5.44476L80.2774 -6.48347C80.5484 -6.85121 80.4709 -7.37379 80.0968 -7.65121L78.6129 -8.72863C78.2451 -8.9996 77.7226 -8.91572 77.4516 -8.54153L76.6968 -7.50927C76.4774 -7.1996 76.0838 -7.07701 75.729 -7.2125C75.4064 -7.34153 75.0645 -7.45121 74.729 -7.54153C74.3677 -7.63831 74.1161 -7.96734 74.1161 -8.34798V-9.6254C74.1161 -10.0899 73.7419 -10.4641 73.2838 -10.4641H71.4516C70.9935 -10.4641 70.6129 -10.0899 70.6129 -9.6254V-8.34798C70.6129 -7.96734 70.3613 -7.63185 70 -7.54153C69.658 -7.45121 69.3226 -7.34153 69 -7.2125C68.6451 -7.07701 68.2451 -7.1996 68.0258 -7.50927L67.2774 -8.54153C67 -8.91572 66.4839 -8.9996 66.1097 -8.72863L64.6258 -7.65121C64.2516 -7.37379 64.1677 -6.85766 64.4387 -6.48347L65.1935 -5.44476C65.4129 -5.14153 65.4064 -4.72218 65.1677 -4.43185C64.9419 -4.16089 64.7355 -3.87701 64.5484 -3.58024C64.3419 -3.26411 63.9484 -3.12863 63.5871 -3.24476L62.3677 -3.63831C61.929 -3.78024 61.458 -3.54153 61.3161 -3.10282L60.7548 -1.35443C60.6129 -0.922172 60.8516 -0.451204 61.2903 -0.309269L62.5097 0.0842791C62.8709 0.206861 63.1032 0.542342 63.0774 0.916536C63.0774 1.09073 63.0645 1.26492 63.0645 1.43911C63.0645 1.61331 63.0774 1.76169 63.0774 1.92298V1.9746C63.1032 2.35524 62.8645 2.69073 62.5097 2.81331L61.2903 3.20686C60.8516 3.34879 60.6129 3.81976 60.7548 4.25847L61.3161 6.00686C61.458 6.45202 61.929 6.68427 62.3677 6.54234L63.5871 6.14879C63.9484 6.03266 64.3419 6.16815 64.5484 6.48427C64.7355 6.7746 64.9419 7.06492 65.1677 7.33589C65.4064 7.62621 65.4129 8.04556 65.1935 8.34879L64.4387 9.3875C64.1677 9.75524 64.2516 10.2778 64.6258 10.5488L66.1097 11.6327C66.4774 11.9036 67 11.8198 67.2774 11.4456L68.0258 10.4069C68.2451 10.1036 68.6451 9.98105 69 10.1165C69.3226 10.2456 69.6516 10.3552 70 10.4456C70.3613 10.5423 70.6129 10.8714 70.6129 11.2391V12.5294C70.6129 12.994 70.9935 13.3681 71.4516 13.3681H73.2838C73.7419 13.3681 74.1161 12.994 74.1161 12.5294V11.2391C74.1161 10.8714 74.3677 10.5359 74.729 10.4456C75.0709 10.3488 75.4064 10.2456 75.729 10.1165C76.0838 9.98105 76.4774 10.1036 76.6968 10.4069L77.4516 11.4456C77.7226 11.8198 78.2451 11.9036 78.6129 11.6327L80.0968 10.5488C80.4709 10.2778 80.5484 9.75524 80.2774 9.3875L79.5226 8.34879C79.3032 8.04556 79.3097 7.62621 79.5484 7.33589C79.7677 7.06492 79.9742 6.7746 80.1677 6.48427C80.3742 6.16815 80.7677 6.03266 81.1161 6.14879L82.3419 6.54234C82.7871 6.68427 83.2451 6.45202 83.3935 6.00686L83.5419 5.53589L83.8387 4.62621L83.9613 4.25847C84.1032 3.82621 83.8645 3.35524 83.4258 3.20686L83.4322 3.2004ZM79.3871 1.92298C79.1484 5.59395 76.0968 8.49073 72.3613 8.49073C68.6258 8.49073 65.5871 5.59395 65.3419 1.92298C65.329 1.76169 65.3226 1.6004 65.3226 1.43911C65.3226 -2.44476 68.4774 -5.5996 72.3613 -5.5996C76.2451 -5.5996 79.4064 -2.44476 79.4064 1.43911C79.4064 1.6004 79.4064 1.76169 79.3871 1.92298Z" fill="#F1512D"/>
<path d="M72.3677 5.36811C74.5341 5.36811 76.2903 3.61191 76.2903 1.44553C76.2903 -0.720853 74.5341 -2.47705 72.3677 -2.47705C70.2013 -2.47705 68.4451 -0.720853 68.4451 1.44553C68.4451 3.61191 70.2013 5.36811 72.3677 5.36811Z" fill="#990033"/>
</g>
<path d="M64.8581 44.6518C69.0065 44.6518 72.3677 41.2905 72.3677 37.1421H57.3484C57.3484 41.2905 60.7097 44.6518 64.8581 44.6518Z" fill="#B20D30"/>
<path d="M64.8386 40.9485C66.9551 40.9485 68.6708 39.2327 68.6708 37.1162C68.6708 34.9997 66.9551 33.2839 64.8386 33.2839C62.7221 33.2839 61.0063 34.9997 61.0063 37.1162C61.0063 39.2327 62.7221 40.9485 64.8386 40.9485Z" fill="#F1512D"/>
<path d="M66.9937 28.4907C67.4131 26.9681 67.3034 25.1681 66.7615 23.8843H67.2711C67.5486 24.6843 67.684 25.6004 67.684 26.5359C67.684 27.3036 67.5873 28.0778 67.3937 28.8004C67.3292 29.052 67.2389 29.3165 67.1615 29.5617C66.9744 30.123 66.8066 30.6391 66.7873 31.2069C66.7615 31.9101 66.9744 32.5617 67.2066 33.252C67.3421 33.6778 67.4905 34.1165 67.5873 34.5875C67.7357 35.2778 67.7421 36.0327 67.6453 36.7488C67.6389 36.8714 67.626 36.994 67.6131 37.1165H67.1357C67.1937 36.8391 67.226 36.5488 67.2518 36.2585C67.2711 35.2649 67.0969 34.2843 66.7679 33.4907H66.7937C66.5615 32.7746 66.3228 32.0262 66.355 31.1617C66.3808 30.4327 66.5808 29.8004 66.7808 29.2069C66.8647 28.9746 66.9357 28.7294 67.0002 28.4907H66.9937Z" fill="#B20D30"/>
<path d="M65.5225 28.4907C65.9418 26.9681 65.8192 25.1617 65.2709 23.8843H65.787C66.0644 24.6907 66.2063 25.6133 66.2063 26.5552C66.2063 27.3165 66.1096 28.0843 65.916 28.8004C65.845 29.052 65.7547 29.3165 65.6709 29.5617C65.4902 30.1165 65.316 30.6391 65.2967 31.2069C65.2709 31.9101 65.4902 32.5617 65.716 33.252C65.8515 33.6778 65.9999 34.1165 66.0967 34.5875C66.2321 35.2391 66.2515 35.9488 66.1676 36.6262C66.1612 36.794 66.1418 36.9552 66.1289 37.123H65.645C65.7031 36.8456 65.7418 36.5488 65.7612 36.2649C65.7805 35.2714 65.5999 34.2843 65.2709 33.4972H65.3031C65.0709 32.781 64.845 32.0327 64.8644 31.1681C64.8902 30.4391 65.0967 29.8069 65.3031 29.2133C65.3741 28.9746 65.4579 28.7359 65.5225 28.4972V28.4907Z" fill="#B20D30"/>
<path d="M63.9679 28.4907C64.3873 26.9681 64.2775 25.1681 63.7162 23.8843H64.2389C64.5163 24.6843 64.6518 25.6069 64.6518 26.5423C64.6518 27.3101 64.5549 28.0843 64.3614 28.8004C64.2904 29.052 64.2065 29.3165 64.1291 29.5617C63.942 30.123 63.7743 30.6391 63.7484 31.2069C63.7226 31.9101 63.9421 32.5617 64.1679 33.252C64.3163 33.6778 64.4518 34.1165 64.5486 34.5875C64.684 35.2456 64.7033 35.9552 64.6194 36.6391C64.613 36.8004 64.6001 36.9552 64.5872 37.123H64.0969C64.1615 36.8391 64.1936 36.5423 64.2194 36.2456C64.2259 35.2585 64.0581 34.2843 63.7162 33.4972H63.7484C63.5226 32.781 63.2776 32.0327 63.3098 31.1681C63.3356 30.4391 63.542 29.8069 63.7484 29.2133C63.8323 28.9811 63.9034 28.7359 63.9679 28.4972V28.4907Z" fill="#B20D30"/>
<path d="M62.658 28.4907C63.0774 26.9681 62.9677 25.1681 62.4064 23.8843H62.929C63.2064 24.6843 63.3419 25.6069 63.3419 26.5423C63.3419 27.3101 63.2451 28.0843 63.0516 28.8004C62.9806 29.052 62.8968 29.3165 62.8064 29.5617C62.6258 30.123 62.4516 30.6391 62.4322 31.2069C62.4064 31.9101 62.6258 32.5617 62.8516 33.252C63 33.6778 63.1355 34.1165 63.2387 34.5875C63.3677 35.2456 63.3871 35.9617 63.3032 36.6391C63.2968 36.8004 63.2839 36.9552 63.2709 37.123H62.7871C62.8451 36.8456 62.8774 36.5552 62.9032 36.2714C62.9097 35.2778 62.7419 34.2907 62.4 33.4972H62.4322C62.2064 32.781 61.9742 32.0327 62.0064 31.1681C62.0258 30.4391 62.2322 29.8069 62.4322 29.2133C62.5032 28.9811 62.5871 28.7359 62.6516 28.4972L62.658 28.4907Z" fill="#B20D30"/>
<path d="M51.4128 15.9292V11.2195L57.3483 15.9292H51.4128Z" fill="#F1512D"/>
<path d="M72.3613 21.684H57.3806V10.2969L64.5419 15.7291L72.3613 21.684Z" fill="#990033"/>
<path d="M61.3354 16.9551C60.9031 16.9551 60.5161 17.0906 60.2064 17.3938C59.8193 17.768 59.6709 18.2389 59.729 18.768C59.7935 19.4325 60.4257 20.1938 61.3225 20.1615C62.2193 20.1873 62.9354 19.4067 62.929 18.5551C62.9161 17.6583 62.2128 16.968 61.3354 16.9615V16.9551ZM62.258 18.6648C62.2064 18.8906 61.9999 19.0583 61.7612 19.0583C61.4838 19.0583 61.2644 18.8325 61.2644 18.5551C61.2644 18.3486 61.387 18.1744 61.5677 18.097C61.6257 18.0712 61.6967 18.0583 61.7677 18.0583C61.7999 18.0583 61.8257 18.0583 61.858 18.0648C62.058 18.1035 62.2193 18.2583 62.258 18.4583C62.258 18.4906 62.2644 18.5164 62.2644 18.5551C62.2644 18.5938 62.2644 18.626 62.258 18.6648Z" fill="#B50333"/>
<path d="M72.3614 21.6841H64.542V15.7292H64.5807C68.2969 15.7486 71.4195 18.2647 72.3614 21.6841Z" fill="#F1512D"/>
<path d="M66.2968 40.6841H63.5161C63.4912 40.6841 63.4709 40.7043 63.4709 40.7292V41.0518C63.4709 41.0768 63.4912 41.097 63.5161 41.097H66.2968C66.3217 41.097 66.3419 41.0768 66.3419 41.0518V40.7292C66.3419 40.7043 66.3217 40.6841 66.2968 40.6841Z" fill="#F1512D"/>
<path d="M66.2968 41.3743H63.5161C63.4912 41.3743 63.4709 41.3945 63.4709 41.4194V41.742C63.4709 41.767 63.4912 41.7872 63.5161 41.7872H66.2968C66.3217 41.7872 66.3419 41.767 66.3419 41.742V41.4194C66.3419 41.3945 66.3217 41.3743 66.2968 41.3743Z" fill="#F1512D"/>
<path d="M66.0967 42.0647H63.729C63.7041 42.0647 63.6838 42.0849 63.6838 42.1099V42.4324C63.6838 42.4574 63.7041 42.4776 63.729 42.4776H66.0967C66.1217 42.4776 66.1419 42.4574 66.1419 42.4324V42.1099C66.1419 42.0849 66.1217 42.0647 66.0967 42.0647Z" fill="#F1512D"/>
<path d="M64.3742 43.0776H65.4388C65.6065 43.0776 65.7355 42.9228 65.7355 42.7292H64.071C64.071 42.9228 64.2065 43.0776 64.3678 43.0776H64.3742Z" fill="#F1512D"/>
<path d="M49.6709 5.61965L53.2451 7.78739V3.4519L49.6709 5.61965Z" fill="#990033"/>
<path d="M53.2454 3.45196V7.78744L53.5293 7.96163L57.3809 10.2971V5.6197V0.94873L53.5293 3.28421L53.2454 3.45196Z" fill="#F1512D"/>
<path d="M57.3806 0.948486V10.2969H72.3613V0.948486H57.3806Z" fill="#990033"/>
<path d="M15.7032 0.94873V21.6842H8.19993C8.11606 21.6842 8.03219 21.6842 7.95477 21.6778C7.75477 21.6778 7.55477 21.6584 7.36122 21.6391C6.83219 21.581 6.30961 21.4649 5.81929 21.2971C5.61929 21.2326 5.41929 21.1552 5.22574 21.0713C2.57413 19.9165 0.716064 17.2778 0.716064 14.2068V0.94873H15.6967H15.7032Z" fill="#006FB5"/>
<mask id="mask5_1_33" style="mask-type:luminance" maskUnits="userSpaceOnUse" x="0" y="0" width="16" height="16">
<path d="M15.6967 0.942139C15.6967 9.21311 8.98058 15.9228 0.716064 15.9228V0.942139H15.6967Z" fill="white"/>
</mask>
<g mask="url(#mask5_1_33)">
<path d="M11.7871 3.2004L10.5677 2.80686C10.3032 2.71653 10.1097 2.51653 10.0258 2.26492C9.99352 2.16815 9.98061 2.07137 9.98707 1.96815C9.98707 1.95524 9.98707 1.93589 9.98707 1.92298C9.99352 1.76169 10.0064 1.60686 10.0064 1.43911V1.36169C10.0064 1.21331 9.99997 1.06492 9.98062 0.916536C9.96126 0.535891 10.2 0.206861 10.5613 0.0842791L11.7806 -0.309269C12.2193 -0.451204 12.458 -0.922172 12.3161 -1.35443L11.7484 -3.10282C11.6064 -3.54798 11.1419 -3.78024 10.6968 -3.63831L9.47094 -3.24476C9.12255 -3.12863 8.729 -3.26411 8.52255 -3.58024C8.329 -3.87701 8.12255 -4.16089 7.9032 -4.43185C7.66449 -4.72218 7.65803 -5.14153 7.87739 -5.44476L8.63223 -6.48347C8.90319 -6.85121 8.82578 -7.37379 8.45158 -7.65121L6.96771 -8.72863C6.59997 -8.9996 6.07739 -8.91572 5.80642 -8.54153L5.05158 -7.50927C4.83223 -7.1996 4.43868 -7.07701 4.08384 -7.2125C3.76126 -7.34153 3.41932 -7.45121 3.08384 -7.54153C2.72255 -7.63831 2.47094 -7.96734 2.47094 -8.34798V-9.6254C2.47094 -10.0899 2.09674 -10.4641 1.63868 -10.4641H-0.20003C-0.658095 -10.4641 -1.03874 -10.0899 -1.03874 -9.6254V-8.34798C-1.03874 -7.96734 -1.29035 -7.63185 -1.65164 -7.54153C-1.99358 -7.45121 -2.32906 -7.34153 -2.65164 -7.2125C-3.00648 -7.07701 -3.40648 -7.1996 -3.62584 -7.50927L-4.37422 -8.54153C-4.65164 -8.91572 -5.16777 -8.9996 -5.54197 -8.72863L-7.02584 -7.65121C-7.40003 -7.37379 -7.4839 -6.85766 -7.21293 -6.48347L-6.4581 -5.44476C-6.23874 -5.14153 -6.24519 -4.72218 -6.4839 -4.43185C-6.70971 -4.16089 -6.91616 -3.87701 -7.10326 -3.58024C-7.30971 -3.26411 -7.70326 -3.12863 -8.06455 -3.24476L-9.2839 -3.63831C-9.72261 -3.78024 -10.1936 -3.54153 -10.3355 -3.10282L-10.8968 -1.35443C-11.0387 -0.922172 -10.8 -0.451204 -10.3613 -0.309269L-9.14197 0.0842791C-8.78068 0.206861 -8.54842 0.542342 -8.57422 0.916536C-8.57422 1.09073 -8.58713 1.26492 -8.58713 1.43911C-8.58713 1.61331 -8.57422 1.76169 -8.57422 1.92298V1.9746C-8.54842 2.35524 -8.78713 2.69073 -9.14197 2.81331L-10.3613 3.20686C-10.8 3.34879 -11.0387 3.81976 -10.8968 4.25847L-10.3355 6.00686C-10.1936 6.45202 -9.72261 6.68427 -9.2839 6.54234L-8.06455 6.14879C-7.70326 6.03266 -7.30971 6.16815 -7.10326 6.48427C-6.91616 6.7746 -6.70971 7.06492 -6.4839 7.33589C-6.24519 7.62621 -6.23874 8.04556 -6.4581 8.34879L-7.21293 9.3875C-7.4839 9.75524 -7.40003 10.2778 -7.02584 10.5488L-5.54197 11.6327C-5.17422 11.9036 -4.65164 11.8198 -4.37422 11.4456L-3.62584 10.4069C-3.40648 10.1036 -3.00648 9.98105 -2.65164 10.1165C-2.32906 10.2456 -2.00003 10.3552 -1.65164 10.4456C-1.29035 10.5423 -1.03874 10.8714 -1.03874 11.2391V12.5294C-1.03874 12.994 -0.658095 13.3681 -0.20003 13.3681H1.63868C2.09674 13.3681 2.47094 12.994 2.47094 12.5294V11.2391C2.47094 10.8714 2.72255 10.5359 3.08384 10.4456C3.42578 10.3488 3.76126 10.2456 4.08384 10.1165C4.43868 9.98105 4.83223 10.1036 5.05158 10.4069L5.80642 11.4456C6.07739 11.8198 6.59997 11.9036 6.96771 11.6327L8.45158 10.5488C8.82578 10.2778 8.90319 9.75524 8.63223 9.3875L7.87739 8.34879C7.65803 8.04556 7.66449 7.62621 7.9032 7.33589C8.12255 7.06492 8.329 6.7746 8.52255 6.48427C8.729 6.16815 9.12255 6.03266 9.47094 6.14879L10.6968 6.54234C11.1419 6.68427 11.6 6.45202 11.7484 6.00686L11.8968 5.53589L12.1935 4.62621L12.3161 4.25847C12.458 3.82621 12.2193 3.35524 11.7806 3.20686L11.7871 3.2004ZM7.7419 1.92298C7.50319 5.59395 4.45158 8.49073 0.716097 8.49073C-3.01939 8.49073 -6.0581 5.59395 -6.30326 1.92298C-6.31616 1.76169 -6.32261 1.6004 -6.32261 1.43911C-6.32261 -2.44476 -3.16777 -5.5996 0.716097 -5.5996C4.59997 -5.5996 7.76126 -2.44476 7.76126 1.43911C7.76126 1.6004 7.76126 1.76169 7.7419 1.92298Z" fill="#115B9C"/>
<path d="M0.716035 5.36811C2.88242 5.36811 4.63862 3.61191 4.63862 1.44553C4.63862 -0.720853 2.88242 -2.47705 0.716035 -2.47705C-1.45034 -2.47705 -3.20654 -0.720853 -3.20654 1.44553C-3.20654 3.61191 -1.45034 5.36811 0.716035 5.36811Z" fill="#009393"/>
</g>
<path d="M6.32913 14.4906C6.32913 14.8455 6.11622 15.1487 5.813 15.2777V21.2906C5.613 21.2261 5.413 21.1487 5.21945 21.0648V15.3229C4.85816 15.2197 4.6001 14.8842 4.6001 14.4971C4.6001 14.0197 4.98719 13.6326 5.46461 13.6326C5.94203 13.6326 6.33558 14.0197 6.33558 14.4971L6.32913 14.4906Z" fill="#115B9C"/>
<path d="M11.3676 9.63244C11.3676 9.97438 11.1676 10.2712 10.8773 10.4066V13.6647L9.69023 14.8518V21.6841H9.09668V14.6066L10.2837 13.426V10.4712C9.90958 10.3744 9.63216 10.0389 9.63216 9.63244C9.63216 9.15502 10.0192 8.76147 10.5031 8.76147C10.987 8.76147 11.3676 9.14857 11.3676 9.63244Z" fill="#115B9C"/>
<path d="M8.49026 12.9614C8.49026 13.3227 8.26446 13.6324 7.94833 13.7614V21.6776C7.74833 21.6776 7.54833 21.6582 7.35478 21.6389V13.7872C7.00639 13.6711 6.76123 13.3485 6.76123 12.9614C6.76123 12.484 7.14833 12.0969 7.62575 12.0969C8.10317 12.0969 8.49026 12.484 8.49026 12.9614Z" fill="#115B9C"/>
<path d="M13.4647 12.0194C13.4647 12.3678 13.2453 12.6646 12.9357 12.7807V15.4775C13.2453 15.5936 13.4647 15.8904 13.4647 16.2388C13.4647 16.684 13.1034 17.0517 12.6518 17.0517C12.2002 17.0517 11.8389 16.6904 11.8389 16.2388C11.8389 15.8904 12.0582 15.5936 12.3679 15.4775V12.7807C12.0582 12.6646 11.8389 12.3678 11.8389 12.0194C11.8389 11.5743 12.2002 11.2065 12.6518 11.2065C13.1034 11.2065 13.4647 11.5678 13.4647 12.0194Z" fill="#115B9C"/>
<path d="M45.6647 0.942139H30.6841L29.0002 3.27762L28.8583 3.47117L26.7809 6.34859L26.6776 6.49053L15.7034 21.6841H26.3873C29.0841 21.6841 31.6196 20.3873 33.2002 18.2002L40.7486 7.74859L40.9163 7.51633L43.768 3.56795L43.9357 3.32924L45.6647 0.942139Z" fill="#115B9C"/>
<path d="M40.3615 0.942139L32.3422 12.0389L30.026 15.2518C27.097 18.8776 24.3034 20.1873 21.1744 20.9937C19.5486 21.4067 17.8647 21.6841 15.7034 21.6776C17.6647 18.9679 30.6841 0.942139 30.6841 0.942139H40.368H40.3615Z" fill="#006FB5"/>
<path d="M35.4517 0.942243L34.8646 1.74869C34.8646 1.74869 27.9742 11.2906 25.2646 15.039C24.9226 15.5164 23.7484 17.1293 22.4517 18.4132C20.8517 20.0003 18.5936 21.6068 15.942 21.6777C15.8581 21.6777 15.7807 21.6777 15.6968 21.6777L24.7226 9.18095L30.6775 0.935791H35.4517V0.942243Z" fill="#00A8D5"/>
<path d="M15.7032 23.8843V44.6262H0.716064V31.3359C0.716064 27.2198 4.05155 23.8843 8.16122 23.8843H15.6967H15.7032Z" fill="url(#paint1_linear_1_33)"/>
<path d="M15.6969 23.8843H11.5098V44.5552H15.6969V23.8843Z" fill="#009393"/>
<path d="M15.7032 37.1355V44.6258H0.716064V36.7097C3.03219 36.7097 4.20639 37.2775 5.34187 37.8323C6.46445 38.3742 7.52897 38.8904 9.70316 38.8904C10.4064 38.8904 10.9935 38.8387 11.5096 38.742C12.5741 38.5484 13.3096 38.2 14.0709 37.8258C14.5419 37.5936 15.0322 37.3613 15.6064 37.1678L15.7032 37.1355Z" fill="#00A8D5"/>
<path d="M15.7032 37.4516V44.6258H0.716064V37.0129C5.21284 37.0129 5.21284 39.1936 9.70316 39.1936C10.3999 39.1936 10.9935 39.142 11.5096 39.0516C13.3483 38.7355 14.2322 37.9549 15.6967 37.4581L15.7032 37.4516Z" fill="#006FB5"/>
<path d="M15.7032 40.213V44.6259H0.716064V39.7808C3.03219 39.7808 4.20639 40.3485 5.34187 40.9033C6.46445 41.4453 7.52897 41.9614 9.70316 41.9614C10.3548 41.9614 10.929 41.9162 11.458 41.8259C12.5612 41.6388 13.2967 41.284 14.0709 40.9033C14.5419 40.6711 15.0257 40.4388 15.5999 40.2453L15.6967 40.213H15.7032Z" fill="#00A8D5"/>
<path d="M15.7032 40.5226V44.6193H0.716064V40.0774C5.21284 40.0774 5.21284 42.258 9.70316 42.258C10.3999 42.258 10.9935 42.2064 11.5032 42.1161C13.3419 41.8 14.2257 41.0193 15.6903 40.5226H15.7032Z" fill="#115B9C"/>
<path d="M45.6647 44.6261H30.6841L29.0002 42.2906L28.8647 42.1035L28.7293 41.9164L26.7873 39.2261L26.6776 39.0842L26.5034 38.839L15.7034 23.8906H26.3873C29.0905 23.8906 31.626 25.1874 33.2002 27.3745L40.4776 37.4519L40.7486 37.8261L40.9163 38.0584L43.6002 41.768L43.768 42.0003L43.9357 42.239L45.6647 44.6261Z" fill="#009393"/>
<path d="M45.6645 44.626H30.6838L28.9999 42.2905L28.8645 42.1034L26.787 39.226L26.6774 39.084L26.5032 38.8389L26.7548 38.8582C27.0645 38.8841 27.3806 38.897 27.6903 38.897C29.8709 38.897 30.929 38.3808 32.0516 37.8389C33.187 37.2905 34.3612 36.7163 36.6774 36.7163C38.4516 36.7163 39.5612 37.0518 40.4774 37.4518L40.7483 37.826L40.9161 38.0582L43.7677 42.0066L43.9354 42.2453L45.6645 44.6324V44.626Z" fill="#00A8D5"/>
<path d="M45.6645 44.6259H30.6838L26.729 39.155C27.0258 39.1743 27.3419 39.1872 27.6838 39.1872C32.1806 39.1872 32.1806 37.0066 36.6774 37.0066C38.6967 37.0066 39.8129 37.4453 40.8322 37.9356L45.6645 44.6259Z" fill="#006FB5"/>
<path d="M45.6646 44.6259H30.684L29.0001 42.2904L28.8647 42.1033L28.7292 41.9162L28.9034 41.8969C30.3098 41.7421 31.1615 41.3356 32.0518 40.9033C33.1873 40.355 34.3615 39.7808 36.6777 39.7808C38.9938 39.7808 40.1679 40.3485 41.3034 40.9033C42.0066 41.2453 42.6711 41.5679 43.6001 41.7614L43.7679 41.9937L43.9356 42.2324L45.6646 44.6195V44.6259Z" fill="#00A8D5"/>
<path d="M45.6645 44.6258H30.6839L28.929 42.1935C32.2258 41.8387 32.6387 40.0774 36.6774 40.0774C40.4709 40.0774 41.0645 41.6322 43.858 42.1161L45.6645 44.6193V44.6258Z" fill="#115B9C"/>
<path d="M169.255 11.5354V1.18091H171.634V11.5354H169.255ZM171.399 9.17329L171.262 6.4067L176.212 1.189H178.874L174.408 5.99413L173.074 7.41788L171.391 9.18138L171.399 9.17329ZM176.342 11.5354L172.661 7.02149L174.23 5.32271L179.141 11.5354H176.35H176.342Z" fill="#00A5CE"/>
<path d="M182.878 9.61012H188.516V11.5354H180.5V1.18091H188.322V3.1062H182.878V9.61012ZM182.7 5.34698H187.683V7.20755H182.7V5.34698Z" fill="#00A5CE"/>
<path d="M190.717 11.5354V1.18091H195.198C196.129 1.18091 196.921 1.32652 197.593 1.63392C198.264 1.93323 198.782 2.37006 199.146 2.92823C199.51 3.49449 199.696 4.15783 199.696 4.9425C199.696 5.72718 199.51 6.37434 199.146 6.93251C198.782 7.49068 198.264 7.91942 197.593 8.21064C196.921 8.50995 196.12 8.65556 195.198 8.65556H192.052L193.119 7.60393V11.5354H190.725H190.717ZM193.111 7.87089L192.043 6.74645H195.061C195.797 6.74645 196.355 6.58466 196.719 6.26918C197.083 5.9456 197.269 5.50877 197.269 4.9425C197.269 4.37624 197.083 3.93132 196.719 3.61583C196.355 3.30035 195.805 3.13856 195.061 3.13856H192.043L193.111 1.99794V7.87089ZM197.293 11.5354L194.705 7.7819H197.261L199.882 11.5354H197.293Z" fill="#00A5CE"/>
<path d="M200.521 11.5354L205.132 1.18091H207.502L212.13 11.5354H209.614L205.828 2.39433H206.774L202.972 11.5354H200.521ZM202.827 9.3189L203.466 7.49877H208.789L209.436 9.3189H202.827Z" fill="#00A5CE"/>
<path d="M213.505 11.5354V1.18091H215.899V9.57776H221.093V11.5273H213.505V11.5354Z" fill="#00A5CE"/>
<path d="M221.368 11.5354L225.979 1.18091H228.341L232.968 11.5354H230.452L226.666 2.39433H227.613L223.811 11.5354H221.36H221.368ZM223.673 9.3189L224.312 7.49877H229.635L230.282 9.3189H223.673Z" fill="#00A5CE"/>
<path d="M171.399 25.4653V17.0685H168.082V15.1189H177.102V17.0685H173.794V25.4653H171.399Z" fill="#00A5CE"/>
<path d="M181.074 23.5403H186.712V25.4656H178.696V15.1111H186.518V17.0364H181.074V23.5403ZM180.896 19.2772H185.879V21.1377H180.896V19.2772Z" fill="#00A5CE"/>
<path d="M193.864 25.6435C193.063 25.6435 192.327 25.514 191.639 25.2552C190.951 24.9963 190.361 24.6242 189.859 24.1388C189.358 23.6535 188.961 23.0872 188.686 22.4401C188.403 21.7929 188.266 21.0729 188.266 20.2963C188.266 19.5198 188.403 18.7998 188.686 18.1526C188.969 17.5055 189.358 16.9311 189.867 16.4539C190.377 15.9685 190.968 15.5964 191.647 15.3375C192.327 15.0786 193.071 14.9492 193.88 14.9492C194.778 14.9492 195.587 15.1029 196.315 15.4184C197.043 15.7258 197.649 16.1869 198.143 16.7855L196.606 18.2093C196.25 17.8048 195.854 17.4974 195.425 17.3032C194.988 17.101 194.519 17.0039 194.001 17.0039C193.516 17.0039 193.071 17.0848 192.666 17.2385C192.262 17.3922 191.914 17.6268 191.615 17.918C191.315 18.2174 191.089 18.5652 190.927 18.9697C190.765 19.3741 190.684 19.8191 190.684 20.3125C190.684 20.806 190.765 21.2509 190.927 21.6554C191.089 22.0598 191.315 22.4077 191.615 22.707C191.914 22.9982 192.262 23.2328 192.666 23.3865C193.071 23.5402 193.516 23.6211 194.001 23.6211C194.511 23.6211 194.988 23.524 195.425 23.3218C195.862 23.1196 196.25 22.8122 196.606 22.3996L198.143 23.8233C197.649 24.422 197.043 24.8831 196.315 25.1986C195.587 25.514 194.778 25.6758 193.864 25.6758V25.6435Z" fill="#00A5CE"/>
<path d="M202.438 25.4656H200.044V15.1111H202.438V25.4656ZM207.316 21.2186H202.26V19.1963H207.316V21.2186ZM207.138 15.1111H209.533V25.4656H207.138V15.1111Z" fill="#00A5CE"/>
<path d="M212.291 25.4656V15.1111H214.273L220.381 22.5615H219.418V15.1111H221.78V25.4656H219.814L213.691 18.0152H214.653V25.4656H212.283H212.291Z" fill="#00A5CE"/>
<path d="M229.562 25.6435C228.745 25.6435 227.985 25.514 227.289 25.2471C226.593 24.9801 225.995 24.608 225.485 24.1227C224.976 23.6373 224.587 23.071 224.304 22.4239C224.021 21.7767 223.883 21.0648 223.883 20.2963C223.883 19.5278 224.021 18.816 224.304 18.1688C224.587 17.5217 224.984 16.9554 225.493 16.47C226.003 15.9847 226.61 15.6126 227.297 15.3456C227.985 15.0786 228.737 14.9492 229.546 14.9492C230.355 14.9492 231.115 15.0786 231.803 15.3456C232.491 15.6126 233.081 15.9847 233.591 16.47C234.1 16.9554 234.497 17.5217 234.78 18.1607C235.063 18.8079 235.209 19.5198 235.209 20.2963C235.209 21.0729 235.063 21.7767 234.78 22.432C234.497 23.0872 234.1 23.6535 233.591 24.1307C233.081 24.608 232.483 24.9801 231.803 25.2471C231.115 25.514 230.371 25.6435 229.562 25.6435ZM229.546 23.6049C230.007 23.6049 230.436 23.524 230.824 23.3703C231.213 23.2166 231.56 22.982 231.852 22.6908C232.143 22.3996 232.377 22.0437 232.539 21.6392C232.701 21.2347 232.782 20.7898 232.782 20.2963C232.782 19.8029 232.701 19.358 232.539 18.9535C232.377 18.549 232.151 18.2012 231.86 17.9019C231.568 17.6106 231.229 17.3761 230.832 17.2224C230.436 17.0687 230.007 16.9878 229.546 16.9878C229.085 16.9878 228.656 17.0687 228.268 17.2224C227.88 17.3761 227.54 17.6106 227.241 17.9019C226.941 18.2012 226.715 18.549 226.553 18.9535C226.391 19.358 226.31 19.8029 226.31 20.2963C226.31 20.7898 226.391 21.2266 226.553 21.6311C226.715 22.0437 226.941 22.3915 227.233 22.6908C227.524 22.982 227.863 23.2166 228.26 23.3703C228.656 23.524 229.085 23.6049 229.546 23.6049Z" fill="#00A5CE"/>
<path d="M237.312 25.4656V15.1111H239.706V23.5079H244.9V25.4575H237.312V25.4656Z" fill="#00A5CE"/>
<path d="M251.566 25.6435C250.749 25.6435 249.988 25.514 249.292 25.2471C248.597 24.9801 247.998 24.608 247.489 24.1227C246.979 23.6373 246.591 23.071 246.307 22.4239C246.024 21.7767 245.887 21.0648 245.887 20.2963C245.887 19.5278 246.024 18.816 246.307 18.1688C246.591 17.5217 246.987 16.9554 247.497 16.47C248.006 15.9847 248.613 15.6126 249.301 15.3456C249.988 15.0786 250.74 14.9492 251.549 14.9492C252.358 14.9492 253.119 15.0786 253.806 15.3456C254.494 15.6126 255.085 15.9847 255.594 16.47C256.104 16.9554 256.5 17.5217 256.783 18.1607C257.066 18.8079 257.212 19.5198 257.212 20.2963C257.212 21.0729 257.066 21.7767 256.783 22.432C256.5 23.0872 256.104 23.6535 255.594 24.1307C255.085 24.608 254.486 24.9801 253.806 25.2471C253.119 25.514 252.375 25.6435 251.566 25.6435ZM251.549 23.6049C252.011 23.6049 252.439 23.524 252.828 23.3703C253.216 23.2166 253.564 22.982 253.855 22.6908C254.146 22.3996 254.381 22.0437 254.543 21.6392C254.704 21.2347 254.785 20.7898 254.785 20.2963C254.785 19.8029 254.704 19.358 254.543 18.9535C254.381 18.549 254.154 18.2012 253.863 17.9019C253.572 17.6106 253.232 17.3761 252.836 17.2224C252.439 17.0687 252.011 16.9878 251.549 16.9878C251.088 16.9878 250.66 17.0687 250.271 17.2224C249.883 17.3761 249.543 17.6106 249.244 17.9019C248.945 18.2012 248.718 18.549 248.556 18.9535C248.395 19.358 248.314 19.8029 248.314 20.2963C248.314 20.7898 248.395 21.2266 248.556 21.6311C248.718 22.0437 248.945 22.3915 249.236 22.6908C249.527 22.982 249.867 23.2166 250.263 23.3703C250.66 23.524 251.088 23.6049 251.549 23.6049Z" fill="#00A5CE"/>
<path d="M264.315 25.6435C263.498 25.6435 262.745 25.514 262.058 25.2552C261.37 24.9963 260.78 24.6242 260.27 24.1388C259.76 23.6535 259.372 23.0872 259.089 22.4401C258.806 21.7929 258.668 21.0729 258.668 20.2963C258.668 19.5198 258.806 18.7998 259.089 18.1526C259.372 17.5055 259.768 16.9311 260.278 16.4539C260.788 15.9766 261.394 15.5964 262.082 15.3375C262.77 15.0786 263.53 14.9492 264.363 14.9492C265.277 14.9492 266.102 15.1029 266.839 15.4103C267.575 15.7177 268.189 16.1626 268.691 16.7451L267.154 18.1688C266.782 17.7724 266.369 17.4812 265.924 17.2871C265.479 17.0929 264.994 16.9959 264.476 16.9959C263.959 16.9959 263.514 17.0767 263.101 17.2304C262.689 17.3841 262.333 17.6187 262.025 17.91C261.726 18.2093 261.491 18.5571 261.33 18.9616C261.168 19.3661 261.087 19.811 261.087 20.3044C261.087 20.7979 261.168 21.2347 261.33 21.6392C261.491 22.0437 261.726 22.3915 262.025 22.6989C262.325 23.0063 262.681 23.2328 263.093 23.3865C263.506 23.5402 263.951 23.6211 264.444 23.6211C264.937 23.6211 265.382 23.5483 265.827 23.3946C266.28 23.2409 266.709 22.982 267.138 22.618L268.497 24.3492C267.939 24.7698 267.283 25.1015 266.539 25.328C265.795 25.5545 265.051 25.6677 264.315 25.6677V25.6435ZM266.313 24.0175V20.1265H268.497V24.3249L266.313 24.0094V24.0175Z" fill="#00A5CE"/>
<path d="M273.585 25.4656V21.2348L274.135 22.6828L269.581 15.1111H272.121L275.607 20.9193H274.143L277.646 15.1111H280L275.446 22.6828L275.98 21.2348V25.4656H273.585Z" fill="#00A5CE"/>
<path d="M171.634 37.4702H177.272V39.3955H169.255V29.041H177.078V30.9663H171.634V37.4702ZM171.456 33.2071H176.439V35.0677H171.456V33.2071Z" fill="#00A5CE"/>
<path d="M178.291 39.3875L182.741 33.2476V34.9949L178.486 29.033H181.204L184.148 33.1909L183.008 33.2071L185.904 29.0411H188.508L184.278 34.8978V33.1828L188.759 39.3955H185.993L182.943 35.003H184.035L181.034 39.3955H178.283L178.291 39.3875Z" fill="#00A5CE"/>
<path d="M190.328 39.3875V29.033H194.81C195.74 29.033 196.533 29.1786 197.204 29.486C197.876 29.7853 198.394 30.2221 198.758 30.7803C199.122 31.3465 199.308 32.0099 199.308 32.7946C199.308 33.5792 199.122 34.2264 198.758 34.7927C198.394 35.3589 197.876 35.7877 197.204 36.087C196.533 36.3863 195.732 36.54 194.81 36.54H191.663L192.731 35.456V39.3875H190.337H190.328ZM192.723 35.7229L191.655 34.5823H194.672C195.409 34.5823 195.967 34.4286 196.331 34.1131C196.695 33.7976 196.881 33.3608 196.881 32.7946C196.881 32.2283 196.695 31.7834 196.331 31.4679C195.967 31.1524 195.417 30.9906 194.672 30.9906H191.655L192.723 29.85V35.7229Z" fill="#00A5CE"/>
<path d="M206.475 39.5653C205.658 39.5653 204.898 39.4359 204.202 39.169C203.506 38.902 202.908 38.5299 202.398 38.0445C201.888 37.5592 201.492 36.9929 201.217 36.3457C200.934 35.6986 200.796 34.9867 200.796 34.2182C200.796 33.4497 200.934 32.7379 201.217 32.0907C201.5 31.4435 201.896 30.8692 202.406 30.3919C202.916 29.9146 203.522 29.5344 204.21 29.2675C204.898 29.0005 205.65 28.8711 206.459 28.8711C207.268 28.8711 208.028 29.0086 208.716 29.2675C209.403 29.5344 209.994 29.9065 210.504 30.3919C211.013 30.8773 211.41 31.4435 211.693 32.0826C211.976 32.7298 212.121 33.4416 212.121 34.2182C212.121 34.9948 211.976 35.6986 211.693 36.3538C211.41 37.0091 211.013 37.5753 210.504 38.0526C209.994 38.5299 209.403 38.902 208.716 39.169C208.028 39.4359 207.284 39.5653 206.475 39.5653ZM206.459 37.5268C206.92 37.5268 207.349 37.4459 207.737 37.2922C208.125 37.1385 208.465 36.912 208.764 36.6127C209.064 36.3134 209.29 35.9655 209.452 35.5611C209.614 35.1566 209.695 34.7117 209.695 34.2182C209.695 33.7248 209.614 33.2798 209.452 32.8754C209.29 32.4709 209.064 32.1231 208.772 31.8237C208.481 31.5244 208.141 31.2979 207.745 31.1442C207.349 30.9905 206.92 30.9096 206.459 30.9096C205.998 30.9096 205.569 30.9905 205.181 31.1442C204.792 31.2979 204.453 31.5244 204.153 31.8237C203.854 32.115 203.628 32.4709 203.466 32.8754C203.304 33.2798 203.223 33.7248 203.223 34.2182C203.223 34.7117 203.304 35.1485 203.466 35.5611C203.628 35.9655 203.854 36.3215 204.145 36.6208C204.436 36.9201 204.776 37.1466 205.173 37.3003C205.569 37.454 205.998 37.5349 206.459 37.5349V37.5268Z" fill="#00A5CE"/>
<path d="M220.154 53.1394C220.227 53.2122 220.308 53.2607 220.405 53.3012C220.502 53.3416 220.607 53.3578 220.729 53.3578C220.85 53.3578 220.947 53.3416 221.044 53.3012C221.141 53.2607 221.222 53.2122 221.295 53.1394C221.368 53.0666 221.416 52.9857 221.457 52.8967C221.497 52.7996 221.513 52.7025 221.513 52.5893C221.513 52.476 221.497 52.379 221.457 52.2819C221.416 52.1929 221.368 52.1039 221.295 52.0392C221.222 51.9664 221.141 51.9179 221.044 51.8774C220.947 51.837 220.842 51.8208 220.72 51.8208C220.599 51.8208 220.494 51.837 220.397 51.8774C220.3 51.9179 220.219 51.9664 220.146 52.0392C220.073 52.112 220.025 52.1929 219.984 52.2819C219.944 52.379 219.928 52.476 219.928 52.5893C219.928 52.7025 219.944 52.7996 219.984 52.8967C220.025 52.9857 220.073 53.0747 220.146 53.1394H220.154Z" fill="white"/>
<path d="M218.674 57.1277H222.549V50.0332H218.674V57.1277ZM221.95 55.4127H219.952V56.1974H219.491V54.0537H219.952V54.8383H221.95V55.4046V55.4127ZM219.539 52.0556C219.604 51.8938 219.693 51.7482 219.806 51.6268C219.92 51.5055 220.057 51.4084 220.211 51.3437C220.365 51.279 220.534 51.2385 220.721 51.2385C220.907 51.2385 221.076 51.2709 221.23 51.3437C221.384 51.4084 221.521 51.5055 221.635 51.6268C221.748 51.7482 221.837 51.8857 221.902 52.0556C221.966 52.2174 221.999 52.3953 221.999 52.5895C221.999 52.7836 221.966 52.9616 221.902 53.1315C221.837 53.2933 221.748 53.4389 221.635 53.5602C221.521 53.6815 221.384 53.7705 221.23 53.8433C221.076 53.9081 220.907 53.9404 220.721 53.9404C220.534 53.9404 220.373 53.9081 220.211 53.8433C220.057 53.7786 219.92 53.6815 219.806 53.5602C219.693 53.4389 219.604 53.2933 219.539 53.1315C219.475 52.9697 219.442 52.7917 219.442 52.5976C219.442 52.4034 219.475 52.2254 219.539 52.0637V52.0556Z" fill="white"/>
<path d="M168.859 58.713H169.927V54.4417H175.136V53.5195H169.927V49.5638H175.767V48.6416H168.859V58.713Z" fill="white"/>
<path d="M179.036 54.0534H184.237V53.1474H179.036V49.5638H184.876V48.6416H177.968V58.713H185.086V57.7908H179.036V54.0534Z" fill="white"/>
<path d="M194.535 53.6978C194.341 53.6169 194.122 53.5603 193.896 53.5117C193.953 53.4875 194.009 53.4794 194.058 53.4632C194.495 53.269 194.842 52.9859 195.093 52.6138C195.344 52.2417 195.473 51.7806 195.473 51.2305C195.473 50.4054 195.166 49.7663 194.543 49.3133C193.928 48.8603 193.055 48.6338 191.93 48.6338H187.586V58.7052H192.221C193.483 58.7052 194.438 58.4706 195.061 58.0014C195.692 57.5322 195.999 56.8689 195.999 56.0195C195.999 55.4451 195.87 54.9597 195.611 54.5715C195.352 54.1832 194.988 53.8919 194.527 53.6978H194.535ZM191.865 49.5155C192.674 49.5155 193.297 49.6692 193.742 49.9686C194.187 50.2679 194.414 50.729 194.414 51.3438C194.414 51.9586 194.187 52.4035 193.742 52.7109C193.297 53.0183 192.674 53.172 191.865 53.172H188.654V49.5155H191.865ZM194.236 57.3785C193.766 57.6778 193.087 57.8315 192.205 57.8315H188.654V54.0456H192.205C193.087 54.0456 193.766 54.1993 194.236 54.4986C194.705 54.798 194.939 55.2752 194.939 55.9305C194.939 56.5857 194.705 57.0711 194.236 57.3785Z" fill="white"/>
<path d="M204.695 54.628C205.165 54.1831 205.52 53.7867 205.763 53.4308C206.006 53.0748 206.168 52.7351 206.249 52.4196C206.329 52.096 206.37 51.7724 206.37 51.4488C206.37 50.834 206.216 50.3082 205.901 49.8633C205.585 49.4184 205.156 49.0786 204.59 48.8359C204.032 48.5933 203.377 48.4719 202.624 48.4719C201.726 48.4719 200.926 48.6418 200.238 48.9735C199.55 49.3132 199.008 49.7662 198.628 50.3406L200.327 51.4327C200.578 51.0848 200.877 50.834 201.241 50.6723C201.597 50.5105 201.993 50.4296 202.414 50.4296C202.94 50.4296 203.344 50.5347 203.611 50.7531C203.886 50.9716 204.024 51.279 204.024 51.6834C204.024 51.8371 204 52.007 203.943 52.185C203.886 52.371 203.789 52.5652 203.652 52.7917C203.506 53.0101 203.28 53.2609 202.972 53.5359L199.089 57.2004V58.7132H206.702V56.8121H202.366L204.687 54.628H204.695Z" fill="white"/>
<path d="M213.618 49.0463C212.947 48.6661 212.146 48.4719 211.215 48.4719C210.512 48.4719 209.873 48.6094 209.298 48.8845C208.716 49.1595 208.255 49.5478 207.915 50.0413C207.575 50.5428 207.405 51.1334 207.405 51.829C207.405 52.46 207.559 53.0101 207.874 53.4874C208.19 53.9566 208.603 54.3206 209.128 54.5795C209.654 54.8383 210.237 54.9678 210.876 54.9678C211.361 54.9678 211.806 54.903 212.202 54.7736C212.599 54.6442 212.938 54.45 213.238 54.1993C213.286 54.1588 213.327 54.1022 213.367 54.0617C213.335 54.992 213.092 55.7201 212.607 56.2054C212.097 56.7313 211.41 56.9982 210.544 56.9982C210.196 56.9982 209.864 56.9658 209.549 56.893C209.233 56.8202 208.934 56.6908 208.659 56.4967L207.794 58.2116C208.15 58.4381 208.57 58.6161 209.056 58.7294C209.541 58.8426 210.051 58.8992 210.584 58.8992C211.604 58.8992 212.494 58.6889 213.262 58.2683C214.031 57.8476 214.629 57.2328 215.066 56.4239C215.503 55.6149 215.721 54.6361 215.721 53.4712C215.721 52.3791 215.535 51.465 215.171 50.7289C214.807 49.9927 214.289 49.4346 213.618 49.0544V49.0463ZM212.898 52.4843C212.752 52.7108 212.55 52.8969 212.283 53.0263C212.016 53.1557 211.717 53.2204 211.385 53.2204C210.868 53.2204 210.455 53.0829 210.14 52.8079C209.824 52.5328 209.67 52.1688 209.67 51.7077C209.67 51.4003 209.743 51.1334 209.889 50.9069C210.034 50.6803 210.229 50.5105 210.479 50.3891C210.73 50.2678 211.021 50.2112 211.353 50.2112C211.725 50.2112 212.041 50.2759 212.299 50.4053C212.558 50.5347 212.76 50.7127 212.898 50.9392C213.036 51.1657 213.108 51.4246 213.108 51.7077C213.108 51.9908 213.036 52.2578 212.89 52.4843H212.898Z" fill="white"/>
<path d="M231.625 56.1001L227.257 48.6416H226.375V58.713H227.402V50.7044L231.358 57.4267H231.86L235.815 50.6559V58.713H236.835V48.6416H235.961L231.625 56.1001Z" fill="white"/>
<path d="M243.104 48.6416L238.501 58.713H239.609L240.815 56.0192H246.437L247.642 58.713H248.767L244.164 48.6416H243.112H243.104ZM241.195 55.1617L243.622 49.7499L246.049 55.1617H241.203H241.195Z" fill="white"/>
<path d="M256.403 55.1054C257.018 54.8303 257.487 54.442 257.819 53.9243C258.15 53.4147 258.312 52.7999 258.312 52.088C258.312 51.3761 258.15 50.737 257.819 50.2274C257.487 49.7178 257.018 49.3214 256.403 49.0464C255.788 48.7713 255.052 48.6338 254.203 48.6338H250.433V58.7052H251.501V55.5098H254.203C254.486 55.5098 254.737 55.4694 254.996 55.4451L257.309 58.7052H258.474L255.991 55.2267C256.128 55.1862 256.274 55.1539 256.395 55.1054H256.403ZM254.17 54.6119H251.493V49.5641H254.17C255.174 49.5641 255.942 49.7825 256.468 50.2274C256.994 50.6723 257.253 51.2952 257.253 52.0961C257.253 52.8969 256.994 53.5117 256.468 53.9486C255.942 54.3935 255.182 54.6119 254.17 54.6119Z" fill="white"/>
<path d="M267.931 49.0787C267.283 48.6742 266.539 48.4639 265.706 48.4639C264.873 48.4639 264.145 48.6661 263.489 49.0787C262.834 49.4831 262.325 50.0818 261.952 50.8583C261.58 51.6349 261.394 52.5733 261.394 53.6816C261.394 54.7898 261.58 55.7282 261.952 56.5048C262.325 57.2814 262.842 57.8719 263.489 58.2845C264.145 58.6889 264.881 58.8993 265.706 58.8993C266.531 58.8993 267.283 58.697 267.931 58.2845C268.578 57.88 269.087 57.2814 269.459 56.5048C269.832 55.7282 270.018 54.7898 270.018 53.6816C270.018 52.5733 269.832 51.6349 269.459 50.8583C269.087 50.0818 268.578 49.4912 267.931 49.0787ZM267.429 55.534C267.259 56.0113 267.033 56.3673 266.741 56.5857C266.45 56.8041 266.102 56.9173 265.714 56.9173C265.326 56.9173 264.994 56.8041 264.703 56.5857C264.412 56.3673 264.177 56.0113 264.015 55.534C263.845 55.0568 263.765 54.4339 263.765 53.6816C263.765 52.9292 263.845 52.3064 264.015 51.8291C264.185 51.3518 264.412 50.9959 264.703 50.7775C264.994 50.559 265.334 50.4458 265.714 50.4458C266.094 50.4458 266.45 50.559 266.741 50.7775C267.033 50.9959 267.267 51.3518 267.429 51.8291C267.599 52.3064 267.68 52.9292 267.68 53.6816C267.68 54.4339 267.599 55.0568 267.429 55.534Z" fill="white"/>
<path d="M274.289 56.8121L276.611 54.628C277.08 54.1831 277.436 53.7867 277.678 53.4308C277.921 53.0748 278.083 52.7351 278.164 52.4196C278.245 52.096 278.285 51.7724 278.285 51.4488C278.285 50.834 278.131 50.3082 277.816 49.8633C277.5 49.4184 277.072 49.0786 276.505 48.8359C275.947 48.5933 275.292 48.4719 274.54 48.4719C273.642 48.4719 272.841 48.6418 272.153 48.9735C271.466 49.3132 270.924 49.7662 270.543 50.3406L272.242 51.4327C272.493 51.0848 272.792 50.834 273.156 50.6723C273.512 50.5105 273.909 50.4296 274.329 50.4296C274.855 50.4296 275.26 50.5347 275.527 50.7531C275.802 50.9716 275.939 51.279 275.939 51.6834C275.939 51.8371 275.915 52.007 275.858 52.185C275.802 52.371 275.705 52.5652 275.567 52.7917C275.421 53.0101 275.195 53.2609 274.887 53.5359L271.005 57.2004V58.7132H278.617V56.8121H274.281H274.289Z" fill="white"/>
<path d="M168.026 44.8801H279.458" stroke="white" stroke-width="0.29122" stroke-miterlimit="10"/>
<path d="M150.361 1.38086V59.4067" stroke="white" stroke-width="0.477419" stroke-miterlimit="10"/>
</g>
<defs>
<linearGradient id="paint0_linear_1_33" x1="108.206" y1="11.4071" x2="128.768" y2="11.4071" gradientUnits="userSpaceOnUse">
<stop stop-color="#F1512D"/>
<stop offset="1" stop-color="#F7941D"/>
</linearGradient>
<linearGradient id="paint1_linear_1_33" x1="8.21284" y1="24.2714" x2="8.21284" y2="44.852" gradientUnits="userSpaceOnUse">
<stop stop-color="#00A8D5"/>
<stop offset="0.12" stop-color="#05AACF"/>
<stop offset="0.28" stop-color="#16B1C0"/>
<stop offset="0.47" stop-color="#32BCA6"/>
<stop offset="0.67" stop-color="#58CC83"/>
<stop offset="0.88" stop-color="#88E056"/>
<stop offset="1" stop-color="#A8ED3A"/>
</linearGradient>
</defs>
</svg>
