<?xml version="1.0" encoding="UTF-8"?><svg id="Layer_1" xmlns="http://www.w3.org/2000/svg" xmlns:xlink="http://www.w3.org/1999/xlink" viewBox="0 0 305.62 149"><defs><style>.cls-1{mask:url(#mask-58);}.cls-2{mask:url(#mask-53);}.cls-3{fill:#6fa2b3;}.cls-3,.cls-4,.cls-5,.cls-6,.cls-7,.cls-8,.cls-9,.cls-10,.cls-11,.cls-12,.cls-13,.cls-14,.cls-15,.cls-16,.cls-17,.cls-18,.cls-19,.cls-20,.cls-21,.cls-22,.cls-23,.cls-24,.cls-25,.cls-26,.cls-27,.cls-28,.cls-29,.cls-30,.cls-31,.cls-32,.cls-33,.cls-34,.cls-35,.cls-36,.cls-37,.cls-38,.cls-39,.cls-40,.cls-41,.cls-42,.cls-43,.cls-44,.cls-45,.cls-46,.cls-47{stroke-width:0px;}.cls-48{mask:url(#mask-56);}.cls-49{mask:url(#mask-23);}.cls-50{mask:url(#mask-27);}.cls-51{mask:url(#mask-10);}.cls-4{fill:#2e6bb2;}.cls-52{mask:url(#mask-26);}.cls-5{fill:#f37f94;}.cls-6{fill:#d01e4e;}.cls-53{mask:url(#mask-46);}.cls-7{fill:#ef3f67;}.cls-54{mask:url(#mask-17);}.cls-8{fill:#cb2030;}.cls-55{mask:url(#mask-43);}.cls-56{mask:url(#mask-41);}.cls-57{mask:url(#mask-49);}.cls-9{fill:#8a489b;}.cls-58{mask:url(#mask-47);}.cls-10{fill:#ef403a;}.cls-59{mask:url(#mask-2);}.cls-60{mask:url(#mask-45);}.cls-61{mask:url(#mask-34);}.cls-62{mask:url(#mask-33);}.cls-11{fill:#6ea2b4;}.cls-12{fill:#f0b656;}.cls-63{mask:url(#mask-13);}.cls-64{mask:url(#mask-59);}.cls-65{mask:url(#mask-3);}.cls-13{fill:#0f8ab9;}.cls-14{fill:#2d6ab3;}.cls-66{mask:url(#mask-31);}.cls-15{fill:none;}.cls-16{fill:#a2c08a;}.cls-17{fill:#f0537e;}.cls-67{mask:url(#mask-54);}.cls-68{mask:url(#mask-30);}.cls-18{fill:#f06b7d;}.cls-69{mask:url(#mask-32);}.cls-70{mask:url(#mask-9);}.cls-71{mask:url(#mask-48);}.cls-19{fill:#7b1f2d;}.cls-72{mask:url(#mask-39);}.cls-73{mask:url(#mask-12);}.cls-20{fill:#118bba;}.cls-21{fill:#91cab7;}.cls-22{fill:#a3509e;}.cls-74{mask:url(#mask-5);}.cls-75{mask:url(#mask-61);}.cls-76{mask:url(#mask-36);}.cls-23{fill:#fff;}.cls-77{mask:url(#mask-35);}.cls-78{mask:url(#mask-40);}.cls-79{mask:url(#mask-20);}.cls-24{fill:#5c3a71;}.cls-80{mask:url(#mask-38);}.cls-81{mask:url(#mask-44);}.cls-82{mask:url(#mask-25);}.cls-25{fill:#f37466;}.cls-26{fill:#68b6c0;}.cls-83{mask:url(#mask-8);}.cls-84{mask:url(#mask-4);}.cls-85{mask:url(#mask-24);}.cls-86{mask:url(#mask-55);}.cls-87{clip-path:url(#clippath);}.cls-88{mask:url(#mask-19);}.cls-89{mask:url(#mask-60);}.cls-90{mask:url(#mask-15);}.cls-27{fill:#263f80;}.cls-91{mask:url(#mask-6);}.cls-28{fill:#9cc38a;}.cls-92{mask:url(#mask-42);}.cls-93{mask:url(#mask-52);}.cls-94{mask:url(#mask-16);}.cls-29{fill:#6e57a5;}.cls-30{fill:#02a0ca;}.cls-95{mask:url(#mask-18);}.cls-31{fill:#503f7a;}.cls-32{fill:#5ea687;}.cls-96{mask:url(#mask-37);}.cls-33{fill:#76c044;}.cls-97{mask:url(#mask-1);}.cls-98{mask:url(#mask);}.cls-99{mask:url(#mask-22);}.cls-34{fill:#72c4b7;}.cls-100{mask:url(#mask-57);}.cls-35{fill:#d64873;}.cls-101{mask:url(#mask-29);}.cls-36{fill:#009fc9;}.cls-37{fill:#91c9b8;}.cls-38{fill:#46315b;}.cls-102{mask:url(#mask-7);}.cls-39{fill:#60a788;}.cls-103{mask:url(#mask-62);}.cls-40{fill:#f6927c;}.cls-104{mask:url(#mask-14);}.cls-41{fill:#74c4b6;}.cls-105{mask:url(#mask-21);}.cls-42{fill:#ec2353;}.cls-106{mask:url(#mask-11);}.cls-107{mask:url(#mask-28);}.cls-43{fill:#6d183c;}.cls-44{fill:#f3f4f4;}.cls-45{fill:#603e97;}.cls-46{fill:#657cbc;}.cls-108{mask:url(#mask-50);}.cls-47{fill:#1f498a;}.cls-109{mask:url(#mask-51);}</style><clipPath id="clippath"><rect class="cls-15" width="305.62" height="149"/></clipPath><mask id="mask" x="0" y="0" width="305.62" height="149" maskUnits="userSpaceOnUse"><g id="mask0_2_3"><path class="cls-23" d="M305.62,0H0v149h305.62V0Z"/></g></mask><mask id="mask-1" x="0" y="0" width="305.62" height="149" maskUnits="userSpaceOnUse"><g id="mask1_2_3"><path class="cls-23" d="M305.62,0H0v149h305.62V0Z"/></g></mask><mask id="mask-2" x="0" y="0" width="305.62" height="149" maskUnits="userSpaceOnUse"><g id="mask2_2_3"><path class="cls-23" d="M305.62,0H0v149h305.62V0Z"/></g></mask><mask id="mask-3" x="0" y="0" width="305.62" height="149" maskUnits="userSpaceOnUse"><g id="mask3_2_3"><path class="cls-23" d="M305.62,0H0v149h305.62V0Z"/></g></mask><mask id="mask-4" x="0" y="0" width="305.62" height="149" maskUnits="userSpaceOnUse"><g id="mask4_2_3"><path class="cls-23" d="M305.62,0H0v149h305.62V0Z"/></g></mask><mask id="mask-5" x="0" y="0" width="305.62" height="149" maskUnits="userSpaceOnUse"><g id="mask5_2_3"><path class="cls-23" d="M305.62,0H0v149h305.62V0Z"/></g></mask><mask id="mask-6" x="0" y="0" width="305.62" height="149" maskUnits="userSpaceOnUse"><g id="mask6_2_3"><path class="cls-23" d="M305.62,0H0v149h305.62V0Z"/></g></mask><mask id="mask-7" x="0" y="0" width="305.62" height="149" maskUnits="userSpaceOnUse"><g id="mask7_2_3"><path class="cls-23" d="M305.62,0H0v149h305.62V0Z"/></g></mask><mask id="mask-8" x="0" y="0" width="305.62" height="149" maskUnits="userSpaceOnUse"><g id="mask8_2_3"><path class="cls-23" d="M305.62,0H0v149h305.62V0Z"/></g></mask><mask id="mask-9" x="0" y="0" width="305.62" height="149" maskUnits="userSpaceOnUse"><g id="mask9_2_3"><path class="cls-23" d="M305.62,0H0v149h305.62V0Z"/></g></mask><mask id="mask-10" x="0" y="0" width="305.62" height="149" maskUnits="userSpaceOnUse"><g id="mask10_2_3"><path class="cls-23" d="M305.62,0H0v149h305.62V0Z"/></g></mask><mask id="mask-11" x="0" y="0" width="305.62" height="149" maskUnits="userSpaceOnUse"><g id="mask11_2_3"><path class="cls-23" d="M305.62,0H0v149h305.62V0Z"/></g></mask><mask id="mask-12" x="0" y="0" width="305.62" height="149" maskUnits="userSpaceOnUse"><g id="mask12_2_3"><path class="cls-23" d="M305.62,0H0v149h305.62V0Z"/></g></mask><mask id="mask-13" x="0" y="0" width="305.62" height="149" maskUnits="userSpaceOnUse"><g id="mask13_2_3"><path class="cls-23" d="M305.62,0H0v149h305.62V0Z"/></g></mask><mask id="mask-14" x="0" y="0" width="305.62" height="149" maskUnits="userSpaceOnUse"><g id="mask14_2_3"><path class="cls-23" d="M305.62,0H0v149h305.62V0Z"/></g></mask><mask id="mask-15" x="0" y="0" width="305.62" height="149" maskUnits="userSpaceOnUse"><g id="mask15_2_3"><path class="cls-23" d="M305.62,0H0v149h305.62V0Z"/></g></mask><mask id="mask-16" x="0" y="0" width="305.62" height="149" maskUnits="userSpaceOnUse"><g id="mask16_2_3"><path class="cls-23" d="M305.62,0H0v149h305.62V0Z"/></g></mask><mask id="mask-17" x="0" y="0" width="305.62" height="149" maskUnits="userSpaceOnUse"><g id="mask17_2_3"><path class="cls-23" d="M305.62,0H0v149h305.62V0Z"/></g></mask><mask id="mask-18" x="0" y="0" width="305.62" height="149" maskUnits="userSpaceOnUse"><g id="mask18_2_3"><path class="cls-23" d="M305.62,0H0v149h305.62V0Z"/></g></mask><mask id="mask-19" x="0" y="0" width="305.62" height="149" maskUnits="userSpaceOnUse"><g id="mask19_2_3"><path class="cls-23" d="M305.62,0H0v149h305.62V0Z"/></g></mask><mask id="mask-20" x="0" y="0" width="305.62" height="149" maskUnits="userSpaceOnUse"><g id="mask20_2_3"><path class="cls-23" d="M305.62,0H0v149h305.62V0Z"/></g></mask><mask id="mask-21" x="0" y="0" width="305.62" height="149" maskUnits="userSpaceOnUse"><g id="mask21_2_3"><path class="cls-23" d="M305.62,0H0v149h305.62V0Z"/></g></mask><mask id="mask-22" x="0" y="0" width="305.62" height="149" maskUnits="userSpaceOnUse"><g id="mask22_2_3"><path class="cls-23" d="M305.62,0H0v149h305.62V0Z"/></g></mask><mask id="mask-23" x="0" y="0" width="305.62" height="149" maskUnits="userSpaceOnUse"><g id="mask23_2_3"><path class="cls-23" d="M305.62,0H0v149h305.62V0Z"/></g></mask><mask id="mask-24" x="0" y="0" width="305.62" height="149" maskUnits="userSpaceOnUse"><g id="mask24_2_3"><path class="cls-23" d="M305.62,0H0v149h305.62V0Z"/></g></mask><mask id="mask-25" x="0" y="0" width="305.62" height="149" maskUnits="userSpaceOnUse"><g id="mask25_2_3"><path class="cls-23" d="M305.62,0H0v149h305.62V0Z"/></g></mask><mask id="mask-26" x="0" y="0" width="305.62" height="149" maskUnits="userSpaceOnUse"><g id="mask26_2_3"><path class="cls-23" d="M305.62,0H0v149h305.62V0Z"/></g></mask><mask id="mask-27" x="0" y="0" width="305.62" height="149" maskUnits="userSpaceOnUse"><g id="mask27_2_3"><path class="cls-23" d="M305.62,0H0v149h305.62V0Z"/></g></mask><mask id="mask-28" x="0" y="0" width="305.62" height="149" maskUnits="userSpaceOnUse"><g id="mask28_2_3"><path class="cls-23" d="M305.62,0H0v149h305.62V0Z"/></g></mask><mask id="mask-29" x="0" y="0" width="305.62" height="149" maskUnits="userSpaceOnUse"><g id="mask29_2_3"><path class="cls-23" d="M305.62,0H0v149h305.62V0Z"/></g></mask><mask id="mask-30" x="0" y="0" width="305.62" height="149" maskUnits="userSpaceOnUse"><g id="mask30_2_3"><path class="cls-23" d="M305.62,0H0v149h305.62V0Z"/></g></mask><mask id="mask-31" x="0" y="0" width="305.62" height="149" maskUnits="userSpaceOnUse"><g id="mask31_2_3"><path class="cls-23" d="M305.62,0H0v149h305.62V0Z"/></g></mask><mask id="mask-32" x="0" y="0" width="305.62" height="149" maskUnits="userSpaceOnUse"><g id="mask32_2_3"><path class="cls-23" d="M305.62,0H0v149h305.62V0Z"/></g></mask><mask id="mask-33" x="0" y="0" width="305.62" height="149" maskUnits="userSpaceOnUse"><g id="mask33_2_3"><path class="cls-23" d="M305.62,0H0v149h305.62V0Z"/></g></mask><mask id="mask-34" x="0" y="0" width="305.62" height="149" maskUnits="userSpaceOnUse"><g id="mask34_2_3"><path class="cls-23" d="M305.62,0H0v149h305.62V0Z"/></g></mask><mask id="mask-35" x="0" y="0" width="305.62" height="149" maskUnits="userSpaceOnUse"><g id="mask35_2_3"><path class="cls-23" d="M305.62,0H0v149h305.62V0Z"/></g></mask><mask id="mask-36" x="0" y="0" width="305.62" height="149" maskUnits="userSpaceOnUse"><g id="mask36_2_3"><path class="cls-23" d="M305.62,0H0v149h305.62V0Z"/></g></mask><mask id="mask-37" x="0" y="0" width="305.62" height="149" maskUnits="userSpaceOnUse"><g id="mask37_2_3"><path class="cls-23" d="M305.62,0H0v149h305.62V0Z"/></g></mask><mask id="mask-38" x="0" y="0" width="305.62" height="149" maskUnits="userSpaceOnUse"><g id="mask38_2_3"><path class="cls-23" d="M305.62,0H0v149h305.62V0Z"/></g></mask><mask id="mask-39" x="0" y="0" width="305.62" height="149" maskUnits="userSpaceOnUse"><g id="mask39_2_3"><path class="cls-23" d="M305.62,0H0v149h305.62V0Z"/></g></mask><mask id="mask-40" x="0" y="0" width="305.62" height="149" maskUnits="userSpaceOnUse"><g id="mask40_2_3"><path class="cls-23" d="M305.62,0H0v149h305.62V0Z"/></g></mask><mask id="mask-41" x="0" y="0" width="305.62" height="149" maskUnits="userSpaceOnUse"><g id="mask41_2_3"><path class="cls-23" d="M305.62,0H0v149h305.62V0Z"/></g></mask><mask id="mask-42" x="0" y="0" width="305.62" height="149" maskUnits="userSpaceOnUse"><g id="mask42_2_3"><path class="cls-23" d="M305.62,0H0v149h305.62V0Z"/></g></mask><mask id="mask-43" x="0" y="0" width="305.62" height="149" maskUnits="userSpaceOnUse"><g id="mask43_2_3"><path class="cls-23" d="M305.62,0H0v149h305.62V0Z"/></g></mask><mask id="mask-44" x="0" y="0" width="305.62" height="149" maskUnits="userSpaceOnUse"><g id="mask44_2_3"><path class="cls-23" d="M305.62,0H0v149h305.62V0Z"/></g></mask><mask id="mask-45" x="0" y="0" width="305.62" height="149" maskUnits="userSpaceOnUse"><g id="mask45_2_3"><path class="cls-23" d="M305.62,0H0v149h305.62V0Z"/></g></mask><mask id="mask-46" x="0" y="0" width="305.62" height="149" maskUnits="userSpaceOnUse"><g id="mask46_2_3"><path class="cls-23" d="M305.62,0H0v149h305.62V0Z"/></g></mask><mask id="mask-47" x="0" y="0" width="305.62" height="149" maskUnits="userSpaceOnUse"><g id="mask47_2_3"><path class="cls-23" d="M305.62,0H0v149h305.62V0Z"/></g></mask><mask id="mask-48" x="0" y="0" width="305.62" height="149" maskUnits="userSpaceOnUse"><g id="mask48_2_3"><path class="cls-23" d="M305.62,0H0v149h305.62V0Z"/></g></mask><mask id="mask-49" x="0" y="0" width="305.62" height="149" maskUnits="userSpaceOnUse"><g id="mask49_2_3"><path class="cls-23" d="M305.62,0H0v149h305.62V0Z"/></g></mask><mask id="mask-50" x="0" y="0" width="305.62" height="149" maskUnits="userSpaceOnUse"><g id="mask50_2_3"><path class="cls-23" d="M305.62,0H0v149h305.62V0Z"/></g></mask><mask id="mask-51" x="0" y="0" width="305.62" height="149" maskUnits="userSpaceOnUse"><g id="mask51_2_3"><path class="cls-23" d="M305.62,0H0v149h305.62V0Z"/></g></mask><mask id="mask-52" x="0" y="0" width="305.62" height="149" maskUnits="userSpaceOnUse"><g id="mask52_2_3"><path class="cls-23" d="M305.62,0H0v149h305.62V0Z"/></g></mask><mask id="mask-53" x="0" y="0" width="305.62" height="149" maskUnits="userSpaceOnUse"><g id="mask53_2_3"><path class="cls-23" d="M305.62,0H0v149h305.62V0Z"/></g></mask><mask id="mask-54" x="0" y="0" width="305.62" height="149" maskUnits="userSpaceOnUse"><g id="mask54_2_3"><path class="cls-23" d="M305.62,0H0v149h305.62V0Z"/></g></mask><mask id="mask-55" x="0" y="0" width="305.62" height="149" maskUnits="userSpaceOnUse"><g id="mask55_2_3"><path class="cls-23" d="M305.62,0H0v149h305.62V0Z"/></g></mask><mask id="mask-56" x="0" y="0" width="305.62" height="149" maskUnits="userSpaceOnUse"><g id="mask56_2_3"><path class="cls-23" d="M305.62,0H0v149h305.62V0Z"/></g></mask><mask id="mask-57" x="0" y="0" width="305.62" height="149" maskUnits="userSpaceOnUse"><g id="mask57_2_3"><path class="cls-23" d="M305.62,0H0v149h305.62V0Z"/></g></mask><mask id="mask-58" x="0" y="0" width="305.62" height="149" maskUnits="userSpaceOnUse"><g id="mask58_2_3"><path class="cls-23" d="M305.62,0H0v149h305.62V0Z"/></g></mask><mask id="mask-59" x="0" y="0" width="305.62" height="149" maskUnits="userSpaceOnUse"><g id="mask59_2_3"><path class="cls-23" d="M305.62,0H0v149h305.62V0Z"/></g></mask><mask id="mask-60" x="0" y="0" width="305.62" height="149" maskUnits="userSpaceOnUse"><g id="mask60_2_3"><path class="cls-23" d="M305.62,0H0v149h305.62V0Z"/></g></mask><mask id="mask-61" x="0" y="0" width="305.62" height="149" maskUnits="userSpaceOnUse"><g id="mask61_2_3"><path class="cls-23" d="M305.62,0H0v149h305.62V0Z"/></g></mask><mask id="mask-62" x="0" y="0" width="305.62" height="149" maskUnits="userSpaceOnUse"><g id="mask62_2_3"><path class="cls-23" d="M305.62,0H0v149h305.62V0Z"/></g></mask></defs><g class="cls-87"><path class="cls-14" d="M81.22,97.33l2.63,7.14,1.99-1.09-4.52-6.12-.1.06Z"/><path class="cls-16" d="M110.03,90.19l2.8-1.53v-12.09l-10.57,6.95,7.77,6.68Z"/><path class="cls-46" d="M85.83,103.39l24.2-13.2-7.77-6.68-20.95,13.76,4.52,6.12Z"/><g class="cls-98"><path class="cls-42" d="M93.56,76.03l-3.73-3.21c-2.85,6.87-5.91,14.52-9.18,22.96l.43,1.17,12.48-20.91Z"/></g><g class="cls-97"><path class="cls-42" d="M73.66,58.92l-6.61-5.69-1.77.75,1.93,5.25.11.3,4.73,12.85.25.67,2.93,7.97,2.4,6.51,5.79-14.49c.57-1.46,1.12-2.9,1.65-4.32l-7.51-6.45-3.9-3.35Z"/></g><g class="cls-59"><path class="cls-42" d="M81.07,96.95l.14.39.1-.06-.24-.32Z"/></g><g class="cls-65"><path class="cls-37" d="M112.84,92.6v-3.94l-2.8,1.53,2.8,2.41Z"/></g><g class="cls-84"><path class="cls-5" d="M73.66,58.92l15.2-1.47c.5-1.65.96-3.28,1.39-4.89.93-3.34,1.68-6.72,2.24-10.14l-25.44,10.81,6.61,5.69Z"/></g><g class="cls-74"><path class="cls-5" d="M101.88,45.92c-1.59,3.18-3.29,6.77-5.09,10.77l8.83-.85-3.74-9.91Z"/></g><g class="cls-91"><path class="cls-42" d="M44.36,36.76c.51,1.2,1.01,2.44,1.5,3.73l10.44,3.51-13.01-11.19h-2.06c.41.07.81.23,1.16.45.94.98,1.62,2.18,1.97,3.49Z"/></g><g class="cls-102"><path class="cls-35" d="M45.86,40.5c.7,1.81,1.38,3.72,2.06,5.71.85,2.52,1.82,5.52,2.91,9l5.47-11.19-10.44-3.51Z"/></g><g class="cls-83"><path class="cls-6" d="M52.62,60.96l6.01,19.15,5.13-20.23-11.14,1.08Z"/></g><g class="cls-70"><path class="cls-6" d="M46.73,79.57c-1.52-4.77-3.04-9.31-4.55-13.64-.22-.63-.44-1.24-.65-1.85l-5.36,2.28,10.56,13.21Z"/></g><g class="cls-51"><path class="cls-25" d="M64.04,50.66l2.99,2.57,25.44-10.81c.18-1.17.3-2.35.34-3.54,0-.12,0-.25,0-.37,0-.91-.09-1.81-.24-2.71-.07-.41-.14-.83-.24-1.28l-2.05-1.71h-28.54l-2.45,5,4.73,12.85Z"/></g><g class="cls-106"><path class="cls-18" d="M65.27,53.99l1.77-.75-2.99-2.57-7.75-6.66-5.47,11.19c.38,1.22.78,2.5,1.19,3.84l.16.52,13.07-5.56h.02Z"/></g><g class="cls-73"><path class="cls-17" d="M64.05,50.66l-4.72-12.84-3.02,6.18,7.75,6.66h0Z"/></g><g class="cls-63"><path class="cls-31" d="M42.46,92.26l6.4,26.33,4.4-17.33c-1.42-4.96-2.83-9.74-4.24-14.34-.77-2.5-1.53-4.95-2.29-7.34l-10.56-13.21,6.29,25.89Z"/></g><g class="cls-104"><path class="cls-29" d="M36.17,66.36l-6.13,17.77-4.34,12.59,23.15,21.87-6.4-26.33-6.29-25.89Z"/></g><g class="cls-90"><path class="cls-19" d="M41.53,64.09c-.58-1.63-1.15-3.21-1.71-4.74l-15.93-4.16-.74-.19v3.02l13.02,8.35,5.36-2.28Z"/></g><g class="cls-94"><path class="cls-9" d="M56.66,113.47c-1.13-4.18-2.27-8.25-3.4-12.21l-4.4,17.33,7.8-5.12Z"/></g><g class="cls-54"><path class="cls-9" d="M72.29,73.06l-6.27,6.86-.45.5-5.09,5.56.05.15,6.46,20.58,4.06-2.67,6.59-16.49-2.4-6.51-2.93-7.98Z"/></g><g class="cls-95"><path class="cls-9" d="M81.07,96.94l-.43-1.17-.43,1.1c-.2.5-.39,1-.58,1.49l1.58-1.04-.14-.39Z"/></g><g class="cls-88"><path class="cls-12" d="M101.88,45.92l3.74,9.91,4.83-.47,2.4-.23v-3.46l-9.74-8.15c-.4.77-.81,1.57-1.22,2.4"/></g><g class="cls-79"><path class="cls-42" d="M65.25,54l-13.07,5.56.44,1.4,11.14-1.08,1.49-5.88Z"/></g><g class="cls-105"><path class="cls-35" d="M66.01,79.91l6.27-6.86-.25-.67-4.73-12.85-1.15.11-2.4.23-5.13,20.23,1.84,5.86,5.09-5.56.45-.49Z"/></g><g class="cls-99"><path class="cls-17" d="M65.25,54l-1.49,5.88,2.4-.23,1.15-.11-.11-.3-1.93-5.25h-.02s0,0,0,0Z"/></g><g class="cls-49"><path class="cls-38" d="M23.15,122.21h4.3l-4.3-4.23v4.23Z"/></g><g class="cls-85"><path class="cls-32" d="M105.61,55.83l-1.55,2.6-10.51,17.6,8.7,7.48,10.57-6.95v-21.43l-2.4.23-4.82.47Z"/></g><g class="cls-82"><path class="cls-22" d="M81.07,96.94l.24.32,20.95-13.76-8.7-7.48-12.48,20.91h0Z"/></g><g class="cls-52"><path class="cls-10" d="M93.56,76.03l10.51-17.6,1.55-2.6h0l-8.83.85c-.74,1.64-1.5,3.34-2.27,5.12-1.49,3.42-3.06,7.09-4.69,11.02l3.73,3.21h0Z"/></g><g class="cls-50"><path class="cls-10" d="M77.55,62.27l7.51,6.45c.31-.83.61-1.65.9-2.47,1.07-3.01,2.04-5.94,2.9-8.8l-15.2,1.47,3.89,3.35Z"/></g><g class="cls-107"><path class="cls-25" d="M112.84,33.77v-.95h-3.51c-.69.99-1.41,2.11-2.17,3.37l5.68-2.42Z"/></g><g class="cls-101"><path class="cls-18" d="M91.95,32.82h-1.64l2.05,1.71c-.11-.56-.25-1.13-.41-1.71Z"/></g><g class="cls-68"><path class="cls-7" d="M59.32,37.82l-1.84-5h-14.2l13.02,11.18,3.02-6.18Z"/></g><g class="cls-66"><path class="cls-8" d="M39.82,59.35c-.33-.91-.67-1.81-1-2.68-.83-2.2-1.64-4.29-2.43-6.26-2.31-6.08-5.11-11.96-8.36-17.59h-4.88v22.17l.74.19,15.93,4.16Z"/></g><g class="cls-69"><path class="cls-17" d="M61.77,32.82h-4.29l1.84,5,2.44-5Z"/></g><g class="cls-62"><path class="cls-47" d="M51.35,122.21h6.93l-4.07-1.56-2.86,1.56Z"/></g><g class="cls-61"><path class="cls-40" d="M103.09,43.52l9.74,8.15v-17.9l-5.68,2.42c-.44.73-.89,1.51-1.36,2.33-.86,1.51-1.76,3.18-2.7,5.01"/></g><g class="cls-77"><path class="cls-45" d="M43.36,122.21h5.85l-.35-3.61-5.51,3.61Z"/></g><g class="cls-76"><path class="cls-45" d="M54.21,120.64l3.82-2.09c-.46-1.71-.92-3.41-1.37-5.09l-7.8,5.12,5.35,2.05Z"/></g><g class="cls-96"><path class="cls-45" d="M68.29,110.89l2.74-6.86-4.06,2.67,1.32,4.19Z"/></g><g class="cls-80"><path class="cls-45" d="M81.22,97.33l-1.58,1.04c-1.49,3.84-2.85,7.39-4.08,10.63l8.29-4.52-2.63-7.14Z"/></g><g class="cls-72"><path class="cls-38" d="M48.86,118.59l.35,3.61h2.14l2.86-1.56-5.35-2.05Z"/></g><g class="cls-78"><path class="cls-31" d="M23.15,108.71v9.26l4.3,4.23h15.9l5.5-3.62-25.7-9.87Z"/></g><g class="cls-56"><path class="cls-43" d="M23.15,58.02v13.88l13.02-5.53-13.02-8.35Z"/></g><g class="cls-92"><path class="cls-24" d="M30.05,84.13l6.12-17.77-13.02,5.53v22.41l2.56,2.42,4.34-12.59Z"/></g><g class="cls-55"><path class="cls-45" d="M25.71,96.72l-2.56-2.42v14.41l25.71,9.88-23.15-21.87Z"/></g><g class="cls-81"><path class="cls-34" d="M110.04,113.81l2.8-.23v-20.98l-2.8-2.41v23.62Z"/></g><g class="cls-60"><path class="cls-11" d="M110.03,113.81v-23.62l-24.2,13.2,24.2,10.42Z"/></g><g class="cls-53"><path class="cls-36" d="M94.48,115.1l15.55-1.29-24.2-10.42,8.65,11.71Z"/></g><g class="cls-58"><path class="cls-29" d="M54.21,120.64l4.07,1.56h.73c-.32-1.22-.65-2.44-.97-3.65l-3.82,2.09Z"/></g><g class="cls-71"><path class="cls-29" d="M75.56,109c-2.01,5.28-3.69,9.72-5.07,13.21h19.88l-6.52-17.73-8.29,4.52Z"/></g><g class="cls-57"><path class="cls-27" d="M85.84,103.39l-1.99,1.09,6.52,17.73h9.36l-5.25-7.11-8.65-11.71Z"/></g><g class="cls-108"><path class="cls-13" d="M110.03,113.81l-15.55,1.29,5.25,7.11h13.1v-8.63l-2.8.23Z"/></g><g class="cls-109"><path class="cls-23" d="M109.32,32.82l.18-.26h-17.63c.02.09.05.17.07.26.16.58.29,1.16.41,1.71.09.44.17.87.24,1.28.15.9.23,1.8.24,2.71,0,.12,0,.24,0,.36-.04,1.18-.15,2.37-.34,3.54-.56,3.42-1.3,6.81-2.24,10.15-.43,1.6-.89,3.23-1.39,4.88-.86,2.86-1.83,5.79-2.9,8.8-.29.82-.59,1.64-.9,2.47-.53,1.42-1.08,2.87-1.65,4.32l-5.79,14.49-6.59,16.49-2.74,6.86-1.32-4.19-6.46-20.58-.05-.14-1.84-5.86-6.01-19.15-.44-1.4-.16-.52c-.41-1.34-.81-2.62-1.19-3.84-1.09-3.47-2.06-6.47-2.91-9-.67-1.99-1.36-3.9-2.06-5.71-.5-1.29-1-2.53-1.5-3.73-.35-1.31-1.03-2.51-1.97-3.49-.35-.23-.75-.38-1.16-.45-1.07-.2-2.16-.28-3.25-.26h-10.1c.05.08.1.17.16.26,3.25,5.63,6.05,11.51,8.36,17.59.79,1.97,1.6,4.05,2.43,6.26.33.87.66,1.77.99,2.68.56,1.53,1.13,3.11,1.71,4.74.22.61.43,1.23.65,1.85,1.51,4.32,3.03,8.86,4.55,13.64.76,2.39,1.53,4.84,2.29,7.34,1.41,4.6,2.82,9.38,4.24,14.34,1.13,3.96,2.27,8.03,3.4,12.21.46,1.68.92,3.38,1.37,5.09.32,1.21.65,2.42.97,3.65.02.07.04.14.06.21h11.34l.08-.21c1.38-3.49,3.06-7.93,5.07-13.21,1.23-3.24,2.59-6.79,4.08-10.63.19-.49.39-.99.58-1.49.14-.37.28-.73.43-1.1,3.27-8.43,6.33-16.08,9.18-22.95,1.63-3.93,3.19-7.6,4.69-11.02.78-1.77,1.53-3.48,2.27-5.12,1.81-4,3.5-7.59,5.09-10.77.41-.83.82-1.63,1.22-2.4.94-1.82,1.84-3.49,2.7-5.01.47-.82.92-1.6,1.36-2.33.76-1.26,1.48-2.38,2.17-3.37"/></g><g class="cls-93"><path class="cls-23" d="M162.52,76.16v1.42c0,3.21-1.97,6.21-5.9,9-3.93,2.78-8.64,4.24-13.46,4.18-7.24,0-13.03-2.54-17.35-7.62-4.32-5.08-6.49-11.91-6.49-20.5,0-8.75,2.28-15.69,6.84-20.83,4.56-5.14,10.66-7.71,18.3-7.7,5.59,0,10.13,1.5,13.63,4.5,1.68,1.38,3.03,3.11,3.94,5.09.91,1.97,1.36,4.12,1.32,6.3,0,1.88-1.06,3.14-3.19,3.76-2.13.63-8.24.94-18.36.94-2.99,0-5.32-.02-7-.06s-3.23-.1-4.69-.18c-.32,1.07-.55,2.16-.68,3.27-.14,1.2-.21,2.41-.21,3.62,0,6.75,1.6,12.07,4.82,15.97,1.56,1.92,3.54,3.44,5.79,4.46,2.25,1.02,4.71,1.5,7.17,1.4,2.84.02,5.65-.57,8.23-1.74,2.73-1.3,5.2-3.08,7.29-5.27M130.82,50.99h1.06c.15,0,1.13.04,2.92.12,1.79.08,3.53.12,5.23.12h1.53c5.35,0,8.65-.28,9.89-.85.61-.29,1.11-.75,1.45-1.34.33-.58.47-1.26.41-1.93,0-1.19-.25-2.37-.74-3.45-.49-1.08-1.22-2.04-2.12-2.82-1.92-1.75-4.45-2.69-7.05-2.62-1.57-.02-3.13.29-4.58.9-1.45.61-2.75,1.52-3.83,2.66-2.4,2.5-3.87,5.75-4.16,9.21Z"/></g><g class="cls-2"><path class="cls-23" d="M206.65,89.98h-.59c-.14.02-.27-.02-.39-.09-.08-.15-.1-.33-.08-.5v-.47l-.36-8.82c-1.66,3.17-4.08,5.86-7.05,7.85-2.58,1.69-5.57,2.65-8.64,2.78-3.08.13-6.14-.56-8.86-2.02-2.36-1.31-4.29-3.28-5.55-5.68-.95-2.01-1.58-4.15-1.86-6.35-.46-4.1-.65-8.22-.56-12.35v-2.3c0-6.75.06-13.37.18-19.88.04-1.14.06-1.82.06-2.06.06-1.03-.13-2.06-.56-3-.45-.74-1.12-1.31-1.92-1.65l7.91-1.24c.16,0,.32-.02.47-.06.1-.03.19-.05.29-.06,1.1,0,1.8.25,2.1.74.4,1.12.55,2.32.44,3.5l-.3,27.94v.7c0,5.88.89,10.09,2.66,12.62,1.77,2.53,4.64,3.79,8.62,3.8,4.44,0,7.59-1.54,9.44-4.62,1.85-3.08,2.78-8.78,2.78-17.09v-14c.08-2.92-.11-5.85-.56-8.73-.37-1.82-.99-2.99-1.86-3.5l11.8-1.35c-.2,3.06-.36,7.54-.5,13.44-.14,5.9-.2,12.34-.2,19.32v6.77c-.1,3.77.1,7.55.6,11.29.17,1.64.9,3.18,2.06,4.35l-9.56.71Z"/></g><g class="cls-67"><path class="cls-23" d="M273.89,35.46l-37.71,49.94h14.87c7.75,0,13.22-.56,16.41-1.68,3.12-1.07,5.83-3.1,7.73-5.79l-1.53,11.35h-50.29l37.72-49.88h-11.52c-6.61,0-11.41.55-14.4,1.65-2.87,1-5.29,2.98-6.85,5.59l2.3-11.17h43.27Z"/></g><g class="cls-86"><path class="cls-23" d="M273.01,117.73l.23-.64c-.56-.16-1.13-.25-1.71-.27-1.35,0-2.07.39-2.07,1.62,0,.98.69,1.3,1.95,1.39,1,.08,1.28.35,1.28.91,0,.82-.43.97-1.28.97-.57,0-1.14-.11-1.67-.3l-.21.63c.61.18,1.24.27,1.88.28,1.38,0,2.02-.4,2.02-1.64,0-.97-.58-1.4-1.93-1.49-.94-.06-1.3-.29-1.3-.8,0-.81.44-.94,1.33-.94.51,0,1.01.11,1.49.29M264.13,117.46c.96,0,1.3.28,1.36,1.57h-2.96c.08-1.22.5-1.57,1.59-1.57ZM264.13,116.83c-1.55,0-2.35.68-2.35,2.72s.86,2.77,2.44,2.77c.58-.02,1.16-.12,1.71-.29l-.15-.62c-.48.17-.99.26-1.5.28-1.21,0-1.75-.36-1.76-2.05h3.73c0-2.21-.65-2.81-2.13-2.81M256.18,121.68c-1.22,0-1.62-.34-1.62-2.1s.4-2.11,1.62-2.11c.77,0,1.44.26,1.44.73v3.26c-.46.15-.95.22-1.44.22ZM256.18,116.83c-1.62,0-2.37.64-2.37,2.76s.75,2.73,2.37,2.73c.72,0,1.44-.15,2.11-.41v-7.18h-.67v2.51c-.41-.3-.92-.45-1.44-.42M248.08,117.44c1.23,0,1.63.35,1.63,2.12s-.4,2.13-1.63,2.13-1.62-.44-1.62-2.13c0-1.77.4-2.12,1.62-2.12ZM248.08,122.31c1.63,0,2.38-.64,2.38-2.77s-.75-2.72-2.38-2.72-2.37.6-2.37,2.72.74,2.77,2.37,2.77ZM242.63,121.4c-.4.18-.83.27-1.27.27-1.22,0-1.78-.42-1.78-2.11,0-1.77.56-2.1,1.78-2.1.44,0,.87.08,1.27.25l.22-.63c-.48-.16-.98-.25-1.49-.26-1.61,0-2.52.6-2.52,2.72s.9,2.77,2.52,2.77c.51,0,1.01-.1,1.49-.29l-.22-.62ZM229.33,122.17h.74v-7.18h-.74v7.18ZM220.18,117.73l.23-.64c-.56-.16-1.13-.25-1.71-.27-1.35,0-2.07.39-2.07,1.62,0,.98.69,1.3,1.95,1.39,1,.08,1.28.35,1.28.91,0,.82-.43.97-1.28.97-.57,0-1.14-.1-1.67-.3l-.21.63c.61.18,1.24.27,1.88.28,1.38,0,2.01-.4,2.01-1.64,0-.97-.58-1.4-1.93-1.49-.94-.06-1.3-.29-1.3-.8,0-.81.44-.94,1.33-.94.51,0,1.01.11,1.49.29M211.05,121.67c-1.22,0-1.62-.34-1.62-2.1s.4-2.11,1.62-2.11c.78,0,1.44.26,1.44.73v3.26c-.46.15-.95.22-1.44.22ZM211.05,116.82c-1.62,0-2.37.64-2.37,2.76s.75,2.73,2.37,2.73c.72,0,1.44-.15,2.11-.41v-7.17h-.67v2.51c-.41-.3-.92-.45-1.44-.42M205.35,116.82c-.27-.02-.54.02-.79.1-.25.09-.48.23-.68.41v-.37h-.67v5.2h.67v-3.97c0-.47.69-.69,1.47-.69.18,0,.36.02.54.04v-.69c-.18-.02-.36-.03-.54-.03M197.34,117.44c1.23,0,1.63.35,1.63,2.12s-.4,2.13-1.63,2.13-1.62-.44-1.62-2.13c0-1.77.4-2.12,1.62-2.12ZM197.34,122.31c1.63,0,2.38-.64,2.38-2.77s-.75-2.72-2.38-2.72-2.37.6-2.37,2.72.74,2.77,2.37,2.77ZM191.99,116.97h-.75c-.39,1.55-.88,3.08-1.47,4.56-.31-1.37-.82-3.35-1.24-4.56h-.86c-.37,1.54-.83,3.06-1.35,4.56-.38-1.55-.85-3.07-1.4-4.56h-.8c.66,1.7,1.23,3.44,1.7,5.2h.95c.46-1.29.99-3.01,1.34-4.43.33.97.86,3,1.16,4.43h.95c.71-1.69,1.3-3.43,1.78-5.2M175.01,122.17h.74v-7.18h-.74v7.18ZM165.85,117.73l.23-.64c-.56-.16-1.13-.25-1.71-.27-1.35,0-2.07.39-2.07,1.62,0,.98.69,1.3,1.95,1.39,1,.08,1.28.35,1.28.91,0,.82-.43.97-1.28.97-.57,0-1.14-.11-1.67-.3l-.21.63c.61.18,1.24.27,1.88.28,1.38,0,2.01-.4,2.01-1.64,0-.97-.58-1.4-1.93-1.49-.94-.06-1.3-.29-1.3-.8,0-.81.44-.94,1.33-.94.51,0,1.01.11,1.49.29M155.36,117.64c.43-.12.87-.18,1.31-.17,1.18,0,1.51.32,1.51,1.9v2.8h.67v-2.94c0-1.89-.55-2.41-2.06-2.41-.72,0-1.44.15-2.11.41v4.93h.67v-4.53h0ZM148.95,117.47c.49,0,.97.07,1.44.22v3.25c0,.48-.66.74-1.44.74-1.22,0-1.62-.42-1.62-2.11,0-1.77.4-2.1,1.62-2.1M151.05,117.23c-.67-.27-1.39-.41-2.11-.41-1.61,0-2.37.6-2.37,2.72s.74,2.77,2.37,2.77c.51.03,1.02-.12,1.44-.43,0,1.39-.69,1.74-1.91,1.74-.51-.01-1.01-.12-1.49-.3l-.2.64c.54.18,1.11.28,1.68.3,1.62,0,2.58-.55,2.58-2.47v-4.55ZM142.76,114.99c-.33,0-.43.05-.43.4,0,.38.1.44.43.44s.42-.06.42-.44c0-.35-.1-.4-.42-.4ZM143.08,122.17h-.67v-5.2h.67v5.2ZM138.53,117.73l.23-.64c-.56-.16-1.13-.25-1.71-.27-1.35,0-2.07.39-2.07,1.62,0,.98.69,1.3,1.95,1.39,1,.08,1.28.35,1.28.91,0,.82-.43.97-1.28.97-.57,0-1.14-.11-1.67-.3l-.21.63c.61.18,1.24.27,1.88.28,1.38,0,2.01-.4,2.01-1.64,0-.97-.58-1.4-1.93-1.49-.94-.06-1.3-.29-1.3-.8,0-.81.44-.94,1.33-.94.51,0,1.01.11,1.49.29M129.66,117.45c.96,0,1.3.28,1.36,1.57h-2.96c.08-1.22.5-1.57,1.59-1.57ZM129.66,116.83c-1.55,0-2.35.68-2.35,2.72s.86,2.77,2.44,2.77c.58-.02,1.16-.12,1.71-.29l-.15-.62c-.48.17-.99.26-1.5.28-1.21,0-1.75-.36-1.76-2.05h3.73c0-2.21-.65-2.81-2.13-2.81M121.71,121.68c-1.22,0-1.62-.34-1.62-2.1s.4-2.11,1.62-2.11c.78,0,1.44.26,1.44.73v3.26c-.46.15-.95.22-1.44.22ZM121.71,116.83c-1.62,0-2.37.64-2.37,2.76s.75,2.73,2.37,2.73c.72,0,1.44-.15,2.11-.41v-7.17h-.67v2.51c-.42-.3-.92-.45-1.44-.42"/></g><g class="cls-48"><path class="cls-21" d="M177.82,100.64l-13.96,11.8h15.45l-1.48-11.8h0Z"/></g><g class="cls-100"><path class="cls-26" d="M179.3,112.44h5.5l-6.98-11.8,1.48,11.8Z"/></g><g class="cls-1"><path class="cls-4" d="M180.47,93.94h-6.62l3.96,6.7,2.65-6.7Z"/></g><g class="cls-64"><path class="cls-39" d="M185.75,93.94h-5.28l-2.65,6.7,1.65-1.4,6.28-5.3Z"/></g><g class="cls-89"><path class="cls-28" d="M210.92,93.94l19.4,18.5h9.93l.46-18.5h-29.79Z"/></g><g class="cls-75"><path class="cls-33" d="M271.73,95.6l-20.46,16.84h16.38c.75,0,1.5-.14,2.2-.42.7-.28,1.33-.7,1.87-1.22.54-.53.96-1.16,1.26-1.85.29-.69.45-1.44.45-2.19v-7.15c0-.75-.15-1.49-.44-2.18-.29-.69-.71-1.31-1.25-1.84Z"/></g><g class="cls-103"><path class="cls-41" d="M177.82,100.64l-39.2-3.99,4.17,15.79h21.04l14-11.8Z"/></g><path class="cls-3" d="M135.3,96.31l-15.97,8.21v2.24c0,.75.16,1.5.46,2.19s.72,1.32,1.26,1.85c.54.53,1.17.94,1.87,1.22s1.44.42,2.2.42h17.67l-4.17-15.79-3.32-.34Z"/><path class="cls-33" d="M267.65,93.94h-26.93l-.46,18.5h11.01l20.47-16.84c-1.09-1.07-2.56-1.67-4.09-1.67"/><path class="cls-20" d="M185.75,93.94l-6.28,5.3-1.65,1.4-3.96-6.7h-33.93l-4.63,2.38,3.32.34,39.2,3.99,6.98,11.8h45.52l-19.4-18.5h-25.17Z"/><path class="cls-30" d="M139.93,93.94h-14.81c-.75,0-1.5.13-2.2.42-.7.28-1.33.7-1.87,1.22-.54.53-.96,1.16-1.26,1.85-.3.69-.45,1.44-.46,2.19v4.91l15.97-8.21,4.63-2.38Z"/><path class="cls-44" d="M264.36,98.12c-1-.29-2.03-.44-3.07-.44-2.78,0-4.39.89-4.39,3.27,0,1.94,1.12,2.65,3.57,2.84,2.06.18,2.55.85,2.55,1.77,0,1.35-1.03,1.72-2.81,1.72-.93,0-1.85-.13-2.75-.38l-.38,1.33c1.03.3,2.09.45,3.16.45,2.81,0,4.42-.85,4.42-3.21,0-1.97-1.11-2.87-3.6-3.1-2-.17-2.5-.65-2.5-1.57,0-1.33.96-1.72,2.73-1.72.91,0,1.82.12,2.7.38l.36-1.34ZM243.89,108.48v-9.23h3.61v-1.32h-8.8v1.32h3.63v9.23h1.56ZM223.09,108.48v-3.67h3.63c2.11,0,2.91-1.62,2.91-3.34,0-1.94-.68-3.52-2.97-3.52h-5.11v10.54h1.55ZM223.09,103.49v-4.25h3.34c.99,0,1.5.79,1.5,2.21,0,1.27-.52,2.04-1.56,2.04h-3.27ZM203.74,97.94v10.54h7.45v-1.32h-5.92v-3.62h4.2v-1.3h-4.2v-3h5.92v-1.32h-7.45ZM185.63,103.11c0,4.3,1.58,5.58,4.9,5.58,1.01,0,2.01-.14,2.99-.39l-.38-1.38c-.79.23-1.61.35-2.43.35-2.49,0-3.41-.6-3.41-4.15s.93-4.04,3.41-4.04c.82,0,1.64.12,2.43.36l.38-1.38c-.98-.25-1.98-.39-2.99-.4-3.32,0-4.9,1.12-4.9,5.43M174.82,97.93h-1.55v8.26c-1.53-2.78-3.22-5.66-4.93-8.26h-2.05v10.54h1.52v-8.7c1.84,2.89,3.58,5.84,5.13,8.7h1.88v-10.54ZM150.56,107.31c-2.5,0-3.25-.73-3.25-4.15s.74-4.13,3.25-4.13,3.28.59,3.28,4.13-.76,4.15-3.28,4.15ZM150.56,97.68c-3.32,0-4.92,1.17-4.92,5.46s1.59,5.55,4.92,5.55,4.92-1.21,4.92-5.55-1.59-5.46-4.92-5.46ZM128.1,103.11c0,4.3,1.58,5.58,4.9,5.58,1.01,0,2.01-.14,2.99-.39l-.38-1.38c-.79.23-1.61.35-2.43.35-2.49,0-3.41-.6-3.41-4.14s.92-4.04,3.41-4.04c.82,0,1.64.12,2.43.36l.38-1.38c-.98-.25-1.98-.38-2.99-.39-3.32,0-4.9,1.12-4.9,5.43"/><path class="cls-23" d="M284.96,29.79h.34c0,1-.29,1.98-.84,2.82-.55.84-1.34,1.49-2.27,1.87-.93.39-1.94.49-2.93.3-.98-.19-1.89-.67-2.6-1.38-.71-.71-1.19-1.61-1.39-2.59-.2-.98-.1-2,.29-2.93.38-.93,1.03-1.72,1.86-2.28.83-.56,1.81-.85,2.82-.85,1.34,0,2.63.53,3.58,1.47.95.95,1.48,2.23,1.49,3.57h-.68c0-.87-.25-1.72-.73-2.44-.48-.72-1.16-1.29-1.96-1.62-.8-.33-1.68-.42-2.54-.26-.85.17-1.64.58-2.25,1.2-.61.61-1.03,1.39-1.21,2.25-.17.85-.08,1.73.25,2.54.33.8.89,1.49,1.61,1.97.72.48,1.57.74,2.44.74,1.16,0,2.27-.46,3.1-1.28.82-.82,1.29-1.93,1.29-3.09h.34Z"/><path class="cls-23" d="M282.33,32.21h-.84c-.73-1.36-1.24-2-1.57-2h-.75v2h-.67v-4.92h2.23c1,0,1.29.66,1.29,1.43.02.17,0,.35-.05.52s-.15.32-.27.45c-.12.13-.27.23-.44.29s-.34.09-.52.07c.33.12.83.82,1.58,2.17M279.17,29.61h1.43c.44,0,.67-.3.67-.83,0-.57-.23-.88-.65-.88h-1.46v1.7Z"/></g></svg>